<svg width="19" height="16" fill="none" xmlns="http://www.w3.org/2000/svg"><g clip-path="url(#clip0_440_1574)"><path d="M16.2 15.067l-6.133-6.134a1.162 1.162 0 01-.283-.433A1.465 1.465 0 019.7 8c0-.178.028-.344.084-.5.055-.156.15-.3.283-.433L16.2.933c.244-.244.55-.372.916-.384.367-.01.684.118.95.384.245.245.367.556.367.934 0 .377-.122.689-.366.933L12.9 8l5.167 5.2a1.3 1.3 0 01.382.916 1.24 1.24 0 01-.382.95c-.245.245-.556.367-.934.367-.377 0-.689-.122-.933-.366zm-8.8 0L1.267 8.933A1.162 1.162 0 01.984 8.5 1.465 1.465 0 01.9 8c0-.178.028-.344.084-.5.055-.156.15-.3.283-.433L7.4.933c.244-.244.55-.372.917-.384.366-.01.683.118.95.384.244.245.366.556.366.934 0 .377-.122.689-.366.933L4.1 8l5.167 5.2c.244.244.372.55.384.916.01.367-.118.684-.384.95-.245.245-.556.367-.934.367s-.689-.122-.933-.366z" fill="#F2F2F2"/></g><defs><clipPath id="clip0_440_1574"><path fill="#fff" transform="translate(.333)" d="M0 0h18.667v16H0z"/></clipPath></defs></svg>