<svg id="Layer_1" data-name="Layer 1" xmlns="http://www.w3.org/2000/svg" version="1.1" viewBox="0 0 512 512"><defs><style>.cls-1,.cls-2{fill:none;stroke:#449fdb}.cls-2{isolation:isolate;opacity:.3}.cls-3{fill:#fff;stroke-width:0}</style></defs><g id="icomoon-ignore"><path class="cls-2" d="M16 0v512"/><path class="cls-1" d="M32 0v512"/><path class="cls-2" d="M48 0v512"/><path class="cls-1" d="M64 0v512"/><path class="cls-2" d="M80 0v512"/><path class="cls-1" d="M96 0v512"/><path class="cls-2" d="M112 0v512"/><path class="cls-1" d="M128 0v512"/><path class="cls-2" d="M144 0v512"/><path class="cls-1" d="M160 0v512"/><path class="cls-2" d="M176 0v512"/><path class="cls-1" d="M192 0v512"/><path class="cls-2" d="M208 0v512"/><path class="cls-1" d="M224 0v512"/><path class="cls-2" d="M240 0v512"/><path class="cls-1" d="M256 0v512"/><path class="cls-2" d="M272 0v512"/><path class="cls-1" d="M288 0v512"/><path class="cls-2" d="M304 0v512"/><path class="cls-1" d="M320 0v512"/><path class="cls-2" d="M336 0v512"/><path class="cls-1" d="M352 0v512"/><path class="cls-2" d="M368 0v512"/><path class="cls-1" d="M384 0v512"/><path class="cls-2" d="M400 0v512"/><path class="cls-1" d="M416 0v512"/><path class="cls-2" d="M432 0v512"/><path class="cls-1" d="M448 0v512"/><path class="cls-2" d="M464 0v512"/><path class="cls-1" d="M480 0v512"/><path class="cls-2" d="M496 0v512M0 16h512"/><path class="cls-1" d="M0 32h512"/><path class="cls-2" d="M0 48h512"/><path class="cls-1" d="M0 64h512"/><path class="cls-2" d="M0 80h512"/><path class="cls-1" d="M0 96h512"/><path class="cls-2" d="M0 112h512"/><path class="cls-1" d="M0 128h512"/><path class="cls-2" d="M0 144h512"/><path class="cls-1" d="M0 160h512"/><path class="cls-2" d="M0 176h512"/><path class="cls-1" d="M0 192h512"/><path class="cls-2" d="M0 208h512"/><path class="cls-1" d="M0 224h512"/><path class="cls-2" d="M0 240h512"/><path class="cls-1" d="M0 256h512"/><path class="cls-2" d="M0 272h512"/><path class="cls-1" d="M0 288h512"/><path class="cls-2" d="M0 304h512"/><path class="cls-1" d="M0 320h512"/><path class="cls-2" d="M0 336h512"/><path class="cls-1" d="M0 352h512"/><path class="cls-2" d="M0 368h512"/><path class="cls-1" d="M0 384h512"/><path class="cls-2" d="M0 400h512"/><path class="cls-1" d="M0 416h512"/><path class="cls-2" d="M0 432h512"/><path class="cls-1" d="M0 448h512"/><path class="cls-2" d="M0 464h512"/><path class="cls-1" d="M0 480h512"/><path class="cls-2" d="M0 496h512"/></g><path class="cls-3" d="M435.2 51.2h-76.8V38.4C358.4 17.2 341.2 0 320 0H192c-21.2 0-38.4 17.2-38.4 38.4v12.8H76.8c-28.2 0-51.2 23-51.2 51.2v12.8c0 14.1 11.5 25.6 25.6 25.6h14.1l33.6 325.3c2.7 26.2 24.6 45.9 50.9 45.9h212.3c26.3 0 48.2-19.8 50.9-45.9l33.6-325.3h14.1c14.1 0 25.6-11.5 25.6-25.6v-12.8c0-28.2-23-51.2-51.2-51.2zm-256-12.8c0-7.1 5.7-12.8 12.8-12.8h128c7.1 0 12.8 5.7 12.8 12.8v12.8H179.2V38.4zm208.4 425c-1.4 13.1-12.3 23-25.5 23H149.8c-13.2 0-24.1-9.9-25.5-23L90.9 140.8h330l-33.4 322.6zM51.2 115.2v-12.8c0-14.1 11.5-25.6 25.6-25.6h358.4c14.1 0 25.6 11.5 25.6 25.6v12.8H51.2z"/><path class="cls-3" d="M179.1 422.4h.8c7.1-.4 12.4-6.5 12-13.6L179.1 204c-.5-7.1-6.4-12.3-13.6-12-7.1.4-12.4 6.5-12 13.6l12.8 204.8c.4 6.8 6 12 12.8 12zm76.9 0c7.1 0 12.8-5.7 12.8-12.8V204.8c0-7.1-5.7-12.8-12.8-12.8s-12.8 5.7-12.8 12.8v204.8c0 7.1 5.7 12.8 12.8 12.8zm76 0h.8c6.7 0 12.3-5.2 12.8-12l12.8-204.8c.5-7.1-4.9-13.1-12-13.6-7-.3-13.1 4.9-13.6 12L320 408.8c-.5 7.1 4.9 13.1 12 13.6z"/></svg>