<!--Copyright by Planitar-->
<svg class="floor" id="floor1" version="1.1" viewBox="-5378.4 -17888.0 13252.4 22219.6" xmlns="http://www.w3.org/2000/svg" xmlns:xlink="http://www.w3.org/1999/xlink">
<style type="text/css">.wallitem{shape-rendering:geometricPrecision; stroke:none} .room{shape-rendering:geometricPrecision; stroke:none; fill:#E0E0E0; stroke-width:30} g.grass polygon { fill: url(#grassPattern); } g.pool polygon { fill: url(#poolPattern); } g.walkway polygon { fill: url(#concretePattern); } g.driveway polygon { fill: url(#concretePattern); } .arrows{fill:black; stroke:none} .door-rect{shape-rendering:geometricPrecision; fill:#dfdfdf} .window-rect{shape-rendering:geometricPrecision; fill:#4fb0e2} .wall{shape-rendering:geometricPrecision; fill:black} .ceiling{display:none} .ceiling-line{fill:none; stroke:red; stroke-width:15} .ceiling-beam{shape-rendering:geometricPrecision; fill:red} .halfwall-outline{shape-rendering:geometricPrecision; stroke:black; stroke-width:7; fill:none} .halfwall-fill{shape-rendering:geometricPrecision; stroke:none; fill:#aaa} .dashline{stroke:black; stroke-width:18; stroke-dasharray: 40} .excluded{fill:none} .line{fill:none; stroke:black; stroke-width:15} .premium{display:none} .premium-fixture{display:none} .premium-freestanding{display:none} .bathroom{fill:#C0E6FF} .kitchen{fill:#E6F2EC} .living{fill:#FFF9E3} .utility{fill:#E8DFD1} .garden{fill:#E6DFD1} .bedroom{fill:#FFF1CC} .dining{fill:#E8DFD1} .pool{fill:#C5E2FA} .storage{fill:#E8DFD1} .office{fill:#FFF1CC} .grass{fill:#EAF5EE} .driveway{fill:#E0E0E0} .laundry{fill:#E8DFD1} .walkway{fill:#E0E0E0} .roof{fill:#999A9D}  #rooms.ansi .unfinished{fill:none;} #rooms.ansi .room.unfinished{fill:none;}   .excluded{fill:none;} .room.excluded{fill:none;}   .garden{fill:#E6DFD1 !important;} .room .garden .room{fill:#E6DFD1 !important;}  .roof{fill:#999A9D !important;} .roof .room{fill:#999A9D !important;}  #rooms.ansi .void-space:not(.unfinished){fill:black;} #rooms.ansi .void-space .room:not(.unfinished){fill:black;}  #rooms.ansi .room.void-space:not(.unfinished){fill:black;} #rooms.ansi .room .void-space .room:not(.unfinished){fill:black;}  .void-space:not(.excluded){fill:black;} .void-space .room:not(.excluded){fill:black;}  .room.void-space:not(.excluded){fill:black;} .room .void-space .room:not(.excluded){fill:black;} .arrows{visibility: hidden}#room64 .arrows{visibility: visible}#room32 .arrows{visibility: visible}#room27 .arrows{visibility: visible}#room33 .arrows{visibility: visible}#room34 .arrows{visibility: visible}#room38 .arrows{visibility: visible}#room29 .arrows{visibility: visible}#room42 .arrows{visibility: visible}#room43 .arrows{visibility: visible}#room45 .arrows{visibility: visible}#labels g rect{fill: none}</style>
<defs>
<pattern height="270" id="concretePattern" patternUnits="userSpaceOnUse" viewBox="0 0 307.3 269.9" width="307">
<rect fill="#E0E0E0" height="100%" width="100%" x="0" y="0"/>
<path d="M105 163.6h23.1M5.5 165.6H28.6M35.7 257.3H58.8M186 44h23.1M176.4 269.9h23.1M61.8 77.1H84.9M200.3 192.5h23.1M283.8 108.6h23.1M284.2 0h23.1M0 22.5H23.1M271.3 243.1h23.1" fill="none" stroke="black" stroke-width="4"/>
</pattern>
<pattern height="532" id="grassPattern" patternUnits="userSpaceOnUse" viewBox="0 0 1158.9 1596" width="386">
<rect fill="#EAF5EE" height="100%" width="100%" x="0" y="0"/>
<path d="M351.4 895.6l304.5 242.5l-3.1 3.9l-3.2 3.9L345.2 903.4l3.1-3.9ZM509.6 1351.5l114.6 240.3l-4.5 2.1l-4.5 2.2L500.6 1355.8l4.5-2.2ZM115.6 1507l236.2-315l4 3l4 3L123.6 1513l-4-3ZM27.2 362.5l123-305.2l4.7 1.9l4.6 1.9L36.5 366.2l-4.6-1.9ZM693.5 160.7L611.7 4.3l4.5-2.2L620.8 0l81.6 156.1l-4.4 2.3ZM961 694.8l147 290.4l-4.5 2.2l-4.5 2.3L952 699.3l4.5-2.3ZM929.8 1150.4L812.5 1464.2l-4.7-1.8l-4.7-1.7l117.4-313.8l4.7 1.8ZM1158.9 142.7L986.7 477.4l-4.4-2.3l-4.5-2.3L1150 138.1l4.4 2.3ZM312.9 273.8L465.4 638l-4.6 1.9l-4.6 2L303.6 277.7l4.6-1.9ZM1133.7 1316.1l22.7 234.1l-4.9 0.4l-5 0.5l-22.8-234l5-0.5ZM798.2 414.4L749 793.4l-5-0.6l-4.9-0.7l49.2-379l5 0.7ZM186.2 717.6L9 1076.9l-4.5-2.2L0 1072.5L177.2 713.2l4.5 2.2Z" fill="black" stroke="none"/>
</pattern>
<pattern height="1491" id="poolPattern" patternUnits="userSpaceOnUse" viewBox="0 0 2694.6 1491.2" width="2695">
<rect fill="#C5E2FA" height="100%" width="100%" x="0" y="0"/>
<defs>
<path d="M15 35 c20 10 100 10 150 -35 c20 30 90 30 110 0 c50 45 130 45 150 35" fill="none" id="w" stroke="black" stroke-width="4"/>
</defs>
<use href="#w" x="0" y="0"/>
<use href="#w" x="300" y="200"/>
<use href="#w" x="1000" y="60"/>
<use href="#w" x="700" y="450"/>
<use href="#w" x="1440" y="380"/>
<use href="#w" x="2270" y="300"/>
<use href="#w" x="180" y="680"/>
<use href="#w" x="920" y="760"/>
<use href="#w" x="1600" y="910"/>
<use href="#w" x="600" y="1050"/>
<use href="#w" x="1250" y="1300"/>
<use href="#w" x="1980" y="1420"/>
<use href="#w" x="520" y="1450"/>
<use href="#w" x="2020" y="600"/>
<use href="#w" x="-200" y="1150"/>
<use href="#w" x="2494.6" y="1150"/>
</pattern>
</defs>
<g id="rooms" class="rms">
<g class="room utility unfinished" id="room45">
<polygon points="-1924.0,-10229.9 -1924.0,-11652.3 -3143.2,-11652.3 -3143.2,-10229.9 -1924.1,-10229.9 "/>
<g class="arrows" id="arrows45">
<polygon points="0.0, 0.0 -83.0, 293.0 0.0, 231.0 83.0, 293.0 " transform="translate(-3143.2 -10947.4) rotate(-90.00)"/>
<polygon points="0.0, 0.0 -83.0, 293.0 0.0, 231.0 83.0, 293.0 " transform="translate(-1924.1 -10947.4) rotate(-270.00)"/>
<polygon points="0.0, 0.0 -83.0, 293.0 0.0, 231.0 83.0, 293.0 " transform="translate(-2562.2 -11652.3) rotate(0.00)"/>
<polygon points="0.0, 0.0 -83.0, 293.0 0.0, 231.0 83.0, 293.0 " transform="translate(-2562.2 -10229.9) rotate(-180.00)"/>
</g>
</g>
<g class="room dining" id="room43">
<polygon points="-1790.7,-158.8 -1790.7,-3815.2 -4851.4,-3859.2 -4851.4,-158.8 -1822.5,-158.8 -1790.7,-158.8 "/>
<g class="arrows" id="arrows43">
<polygon points="0.0, 0.0 -83.0, 293.0 0.0, 231.0 83.0, 293.0 " transform="translate(-4851.4 -2000.3) rotate(-90.00)"/>
<polygon points="0.0, 0.0 -83.0, 293.0 0.0, 231.0 83.0, 293.0 " transform="translate(-1790.7 -2000.2) rotate(-270.00)"/>
<polygon points="0.0, 0.0 -83.0, 293.0 0.0, 231.0 83.0, 293.0 " transform="translate(-3321.0 -3837.2) rotate(0.00)"/>
<polygon points="0.0, 0.0 -83.0, 293.0 0.0, 231.0 83.0, 293.0 " transform="translate(-3321.1 -158.8) rotate(-180.00)"/>
</g>
</g>
<g class="room storage" id="room44">
<polygon points="1517.7,-5073.6 1517.7,-5841.2 889.0,-5828.1 889.0,-5835.6 660.4,-5835.6 660.4,-5073.6 1517.7,-5073.6 "/>
<g class="arrows" id="arrows44">
<polygon points="0.0, 0.0 -83.0, 293.0 0.0, 231.0 83.0, 293.0 " transform="translate(660.4 -5454.3) rotate(-90.00)"/>
<polygon points="0.0, 0.0 -83.0, 293.0 0.0, 231.0 83.0, 293.0 " transform="translate(1517.7 -5454.3) rotate(-270.00)"/>
<polygon points="0.0, 0.0 -83.0, 293.0 0.0, 231.0 83.0, 293.0 " transform="translate(1089.6 -5832.3) rotate(0.00)"/>
<polygon points="0.0, 0.0 -83.0, 293.0 0.0, 231.0 83.0, 293.0 " transform="translate(1089.6 -5073.6) rotate(-180.00)"/>
</g>
</g>
<g class="room bedroom" id="room42">
<polygon points="-1816.1,-10160.0 -1816.1,-5925.4 590.6,-5962.7 590.5,-5962.6 889.0,-5962.6 889.0,-7169.1 889.0,-8769.4 889.0,-10160.0 -1816.1,-10160.0 "/>
<g class="arrows" id="arrows42">
<polygon points="0.0, 0.0 -83.0, 293.0 0.0, 231.0 83.0, 293.0 " transform="translate(-1816.1 -8064.5) rotate(-90.00)"/>
<polygon points="0.0, 0.0 -83.0, 293.0 0.0, 231.0 83.0, 293.0 " transform="translate(889.0 -8064.5) rotate(-270.00)"/>
<polygon points="0.0, 0.0 -83.0, 293.0 0.0, 231.0 83.0, 293.0 " transform="translate(-463.5 -10160.0) rotate(0.00)"/>
<polygon points="0.0, 0.0 -83.0, 293.0 0.0, 231.0 83.0, 293.0 " transform="translate(-463.5 -5946.4) rotate(-180.00)"/>
</g>
</g>
<g class="room storage" id="room41">
<polygon points="7442.2,-6038.8 7442.2,-7112.0 5302.3,-7112.0 5302.2,-6038.8 6432.5,-6038.8 7442.2,-6038.8 "/>
<g class="arrows" id="arrows41">
<polygon points="0.0, 0.0 -83.0, 293.0 0.0, 231.0 83.0, 293.0 " transform="translate(5302.3 -6575.4) rotate(-90.00)"/>
<polygon points="0.0, 0.0 -83.0, 293.0 0.0, 231.0 83.0, 293.0 " transform="translate(7442.2 -6575.4) rotate(-270.00)"/>
<polygon points="0.0, 0.0 -83.0, 293.0 0.0, 231.0 83.0, 293.0 " transform="translate(6372.2 -7112.0) rotate(0.00)"/>
<polygon points="0.0, 0.0 -83.0, 293.0 0.0, 231.0 83.0, 293.0 " transform="translate(6372.2 -6038.8) rotate(-180.00)"/>
</g>
</g>
<g class="room living" id="room29">
<polygon points="1682.8,-5844.8 1682.8,-4959.4 590.5,-4959.4 -1790.7,-4959.4 -1790.7,-3815.2 -1790.7,-158.8 -1822.4,-158.8 -1822.4,1073.1 7442.2,1073.1 7442.2,-4997.4 6489.7,-4997.4 6489.7,-4870.4 6375.4,-4870.4 6375.4,-4997.4 6375.4,-5924.5 5245.5,-5924.5 5245.5,-5924.6 1682.8,-5844.8 "/>
<g class="arrows" id="arrows29">
<polygon points="0.0, 0.0 -83.0, 293.0 0.0, 231.0 83.0, 293.0 " transform="translate(-1790.7 -2378.2) rotate(-90.00)"/>
<polygon points="0.0, 0.0 -83.0, 293.0 0.0, 231.0 83.0, 293.0 " transform="translate(7442.2 -2378.2) rotate(-270.00)"/>
<polygon points="0.0, 0.0 -83.0, 293.0 0.0, 231.0 83.0, 293.0 " transform="translate(3978.8 -5896.2) rotate(0.00)"/>
<polygon points="0.0, 0.0 -83.0, 293.0 0.0, 231.0 83.0, 293.0 " transform="translate(3978.8 1073.1) rotate(-180.00)"/>
</g>
</g>
<g class="room storage" id="room39">
<polygon points="-4857.8,-14458.9 -4857.8,-13804.9 -3670.3,-13804.9 -3670.3,-14458.9 -4857.8,-14458.9 "/>
<g class="arrows" id="arrows39">
<polygon points="0.0, 0.0 -83.0, 293.0 0.0, 231.0 83.0, 293.0 " transform="translate(-4857.8 -14141.5) rotate(-90.00)"/>
<polygon points="0.0, 0.0 -83.0, 293.0 0.0, 231.0 83.0, 293.0 " transform="translate(-3670.3 -14141.5) rotate(-270.00)"/>
<polygon points="0.0, 0.0 -83.0, 293.0 0.0, 231.0 83.0, 293.0 " transform="translate(-4270.4 -14458.9) rotate(0.00)"/>
<polygon points="0.0, 0.0 -83.0, 293.0 0.0, 231.0 83.0, 293.0 " transform="translate(-4270.4 -13804.9) rotate(-180.00)"/>
</g>
</g>
<g class="room laundry" id="room38">
<polygon points="-1924.0,-14458.9 -3556.0,-14458.9 -3556.0,-13690.6 -4857.8,-13690.6 -4857.8,-11779.3 -3200.4,-11779.3 -1924.0,-11779.3 -1924.0,-14458.9 "/>
<g class="arrows" id="arrows38">
<polygon points="0.0, 0.0 -83.0, 293.0 0.0, 231.0 83.0, 293.0 " transform="translate(-4857.8 -12821.2) rotate(-90.00)"/>
<polygon points="0.0, 0.0 -83.0, 293.0 0.0, 231.0 83.0, 293.0 " transform="translate(-1924.0 -12821.2) rotate(-270.00)"/>
<polygon points="0.0, 0.0 -83.0, 293.0 0.0, 231.0 83.0, 293.0 " transform="translate(-3021.2 -14458.9) rotate(0.00)"/>
<polygon points="0.0, 0.0 -83.0, 293.0 0.0, 231.0 83.0, 293.0 " transform="translate(-3021.2 -11779.3) rotate(-180.00)"/>
</g>
</g>
<g class="room living" id="room37">
<polygon points="1041.4,-5905.5 1041.4,-5958.3 1553.3,-5969.0 1553.3,-5969.0 5188.0,-6050.3 5188.0,-7112.0 3276.6,-7112.0 1041.4,-7112.0 1041.4,-5905.5 "/>
<g class="arrows" id="arrows37">
<polygon points="0.0, 0.0 -83.0, 293.0 0.0, 231.0 83.0, 293.0 " transform="translate(1041.4 -6537.3) rotate(-90.00)"/>
<polygon points="0.0, 0.0 -83.0, 293.0 0.0, 231.0 83.0, 293.0 " transform="translate(5188.0 -6537.3) rotate(-270.00)"/>
<polygon points="0.0, 0.0 -83.0, 293.0 0.0, 231.0 83.0, 293.0 " transform="translate(3095.6 -7112.0) rotate(0.00)"/>
<polygon points="0.0, 0.0 -83.0, 293.0 0.0, 231.0 83.0, 293.0 " transform="translate(3095.6 -6003.5) rotate(-180.00)"/>
</g>
</g>
<g class="room storage" id="room36">
<polygon points="-1803.4,-5454.6 -1803.4,-5073.6 546.1,-5073.6 546.1,-5847.7 -1816.1,-5811.1 -1816.1,-5454.6 "/>
<g class="arrows" id="arrows36">
<polygon points="0.0, 0.0 -83.0, 293.0 0.0, 231.0 83.0, 293.0 " transform="translate(-1803.4 -5441.9) rotate(-90.00)"/>
<polygon points="0.0, 0.0 -83.0, 293.0 0.0, 231.0 83.0, 293.0 " transform="translate(546.1 -5441.9) rotate(-270.00)"/>
<polygon points="0.0, 0.0 -83.0, 293.0 0.0, 231.0 83.0, 293.0 " transform="translate(-641.3 -5829.3) rotate(0.00)"/>
<polygon points="0.0, 0.0 -83.0, 293.0 0.0, 231.0 83.0, 293.0 " transform="translate(-641.3 -5073.6) rotate(-180.00)"/>
</g>
</g>
<g class="room bathroom" id="room34">
<polygon points="3213.1,-10160.0 3168.6,-10160.0 990.6,-10160.0 990.6,-8839.2 1816.1,-8839.2 1816.1,-8712.2 1003.3,-8712.2 1003.3,-7251.7 3213.1,-7251.7 3213.1,-10160.0 "/>
<g class="arrows" id="arrows34">
<polygon points="0.0, 0.0 -83.0, 293.0 0.0, 231.0 83.0, 293.0 " transform="translate(1003.3 -8072.1) rotate(-90.00)"/>
<polygon points="0.0, 0.0 -83.0, 293.0 0.0, 231.0 83.0, 293.0 " transform="translate(3213.1 -8072.1) rotate(-270.00)"/>
<polygon points="0.0, 0.0 -83.0, 293.0 0.0, 231.0 83.0, 293.0 " transform="translate(2379.6 -10160.0) rotate(0.00)"/>
<polygon points="0.0, 0.0 -83.0, 293.0 0.0, 231.0 83.0, 293.0 " transform="translate(2379.6 -7251.7) rotate(-180.00)"/>
</g>
</g>
<g class="room bedroom" id="room33">
<polygon points="3352.8,-11417.3 3352.8,-10299.7 3352.8,-7251.7 5245.1,-7251.7 7467.6,-7251.7 7467.6,-11417.3 3352.8,-11417.3 "/>
<g class="arrows" id="arrows33">
<polygon points="0.0, 0.0 -83.0, 293.0 0.0, 231.0 83.0, 293.0 " transform="translate(3352.8 -9338.0) rotate(-90.00)"/>
<polygon points="0.0, 0.0 -83.0, 293.0 0.0, 231.0 83.0, 293.0 " transform="translate(7467.6 -9338.0) rotate(-270.00)"/>
<polygon points="0.0, 0.0 -83.0, 293.0 0.0, 231.0 83.0, 293.0 " transform="translate(5387.8 -11417.3) rotate(0.00)"/>
<polygon points="0.0, 0.0 -83.0, 293.0 0.0, 231.0 83.0, 293.0 " transform="translate(5387.8 -7251.7) rotate(-180.00)"/>
</g>
</g>
<g class="room storage" id="room27">
<polygon points="7658.1,-17672.0 3365.5,-17672.0 3365.5,-11557.0 7550.1,-11557.0 7658.1,-11557.0 7658.1,-17672.0 "/>
<g class="arrows" id="arrows27">
<polygon points="0.0, 0.0 -83.0, 293.0 0.0, 231.0 83.0, 293.0 " transform="translate(3365.5 -14636.7) rotate(-90.00)"/>
<polygon points="0.0, 0.0 -83.0, 293.0 0.0, 231.0 83.0, 293.0 " transform="translate(7658.1 -14636.7) rotate(-270.00)"/>
<polygon points="0.0, 0.0 -83.0, 293.0 0.0, 231.0 83.0, 293.0 " transform="translate(5467.3 -17672.0) rotate(0.00)"/>
<polygon points="0.0, 0.0 -83.0, 293.0 0.0, 231.0 83.0, 293.0 " transform="translate(5467.3 -11557.0) rotate(-180.00)"/>
</g>
</g>
<g class="room dining" id="room32">
<polygon points="-1943.1,-3906.3 -1943.1,-5016.5 -1943.1,-5397.5 -2908.3,-5397.5 -2908.3,-5511.8 -1955.8,-5511.8 -1955.8,-5867.4 -4851.4,-5867.4 -4851.4,-3948.1 -1943.1,-3906.3 "/>
<g class="arrows" id="arrows32">
<polygon points="0.0, 0.0 -83.0, 293.0 0.0, 231.0 83.0, 293.0 " transform="translate(-4851.4 -4902.2) rotate(-90.00)"/>
<polygon points="0.0, 0.0 -83.0, 293.0 0.0, 231.0 83.0, 293.0 " transform="translate(-1943.1 -4902.2) rotate(-270.00)"/>
<polygon points="0.0, 0.0 -83.0, 293.0 0.0, 231.0 83.0, 293.0 " transform="translate(-3763.7 -5867.4) rotate(0.00)"/>
<polygon points="0.0, 0.0 -83.0, 293.0 0.0, 231.0 83.0, 293.0 " transform="translate(-3763.7 -3932.4) rotate(-180.00)"/>
</g>
</g>
<g class="room kitchen" id="room64">
<polygon points="-3257.6,-11652.3 -4851.4,-11652.3 -4851.4,-5867.4 -1955.8,-5867.4 -1955.8,-10128.3 -3257.5,-10128.3 -3257.5,-11652.3 "/>
<g class="arrows" id="arrows64">
<polygon points="0.0, 0.0 -83.0, 293.0 0.0, 231.0 83.0, 293.0 " transform="translate(-4851.4 -8474.5) rotate(-90.00)"/>
<polygon points="0.0, 0.0 -83.0, 293.0 0.0, 231.0 83.0, 293.0 " transform="translate(-1955.8 -8474.5) rotate(-270.00)"/>
<polygon points="0.0, 0.0 -83.0, 293.0 0.0, 231.0 83.0, 293.0 " transform="translate(-3415.2 -11652.3) rotate(0.00)"/>
<polygon points="0.0, 0.0 -83.0, 293.0 0.0, 231.0 83.0, 293.0 " transform="translate(-3415.2 -5867.4) rotate(-180.00)"/>
</g>
</g>
<g class="room stairs" id="room65">
<polygon points="6489.7,-4997.4 7442.2,-4997.4 7442.2,-5924.5 6489.7,-5924.5 6489.7,-4997.4 "/>
<g class="arrows" id="arrows65">
<polygon points="0.0, 0.0 -83.0, 293.0 0.0, 231.0 83.0, 293.0 " transform="translate(6489.7 -5461.0) rotate(-90.00)"/>
<polygon points="0.0, 0.0 -83.0, 293.0 0.0, 231.0 83.0, 293.0 " transform="translate(7442.2 -5461.0) rotate(-270.00)"/>
<polygon points="0.0, 0.0 -83.0, 293.0 0.0, 231.0 83.0, 293.0 " transform="translate(6966.0 -5924.5) rotate(0.00)"/>
<polygon points="0.0, 0.0 -83.0, 293.0 0.0, 231.0 83.0, 293.0 " transform="translate(6966.0 -4997.4) rotate(-180.00)"/>
</g>
</g>
<g class="room outdoor excluded" id="room66">
<polygon points="-2038.3,-31.7 -5067.3,-31.7 -5067.3,4311.6 7645.4,4311.6 7645.4,1225.5 -2038.3,1225.5 -2038.3,-31.7 "/>
<g class="arrows" id="arrows66">
<polygon points="0.0, 0.0 -83.0, 293.0 0.0, 231.0 83.0, 293.0 " transform="translate(-5067.3 2682.6) rotate(-90.00)"/>
<polygon points="0.0, 0.0 -83.0, 293.0 0.0, 231.0 83.0, 293.0 " transform="translate(7645.4 2682.6) rotate(-270.00)"/>
<polygon points="0.0, 0.0 -83.0, 293.0 0.0, 231.0 83.0, 293.0 " transform="translate(904.3 1225.5) rotate(0.00)"/>
<polygon points="0.0, 0.0 -83.0, 293.0 0.0, 231.0 83.0, 293.0 " transform="translate(904.3 4311.6) rotate(-180.00)"/>
</g>
</g>
</g>
<symbol id="file-windows-1-Standard.svg" preserveAspectRatio="none" viewBox="0 0 118 25">
<path d="M0 9.1h118 M0 16.9h118" fill="none" stroke="#000"/>
</symbol>
<symbol id="file-doors-1-Standard.svg" preserveAspectRatio="none" viewBox="0 0 80 80">
<path d="M0 40L66.6 1.1" fill="none" stroke="#000" stroke-width="2"/>
<path d="M66.1 1.1C75 15.5 79.4 30 79.4 40" fill="none" stroke="#000"/>
</symbol>
<symbol id="file-doors-5-Sliding.svg" preserveAspectRatio="none" viewBox="0 0 179 15">
<g fill="none" stroke="#000">
<path d="M0 6.2h95m84 2.6H84" stroke-width="2"/>
</g>
</symbol>
<symbol id="file-doors-3-Walkway.svg" preserveAspectRatio="none" viewBox="0 0 360 390"/>
<symbol id="file-doors-6-Fold.svg" preserveAspectRatio="none" viewBox="0 0 90 83">
<path d="M1 39L26 1m1 0l26 38" fill="none" stroke="#000" stroke-width="2"/>
</symbol>
<symbol id="file-objects-STRUCTURAL-Column_R.svg" preserveAspectRatio="none" viewBox="0 0 200 200">
<rect height="200" width="200" x="0" y="0"/>
</symbol>
<g id="cosmeticlines">
<path class="wall" d="M3975.1-4870.4V-5899.1h57.2h57.1v1143l-57.1-57.2Z"/>
<path class="wall" d="M1682.8-4870.4H3975.1l57.2 57.1l57.1 57.2H1568.4l57.2-57.1Z"/>
<path class="wall" d="M1682.8-4959.3v88.9l-57.2 57.1l-57.1 57.2v-203.2h57.1Z"/>
<path class="line" d="M1568.4 -4318.0 L4089.4 -4318.0 "/>
<path class="line" d="M4089.4 -4318.0 L4089.4 -4756.1 "/>
<path class="line" d="M1568.4 -4756.1 L1568.4 -4318.0 "/>
<path class="line" d="M7442.2 -5924.5 L6489.7 -5924.5 "/>
<path class="line" d="M6489.7 -5924.5 L6489.7 -4997.4 "/>
<path class="line" d="M7442.2 -4997.4 L6489.7 -4997.4 "/>
<path class="line" d="M7442.2 -5924.5 L7442.2 -4997.4 "/>
<path class="line" d="M7442.2 -5229.2 L6489.7 -5229.2 "/>
<path class="line" d="M6965.9 -5113.3 L6965.9 -5229.2 "/>
<path class="line" d="M7442.2 -5461.0 L6489.7 -5461.0 "/>
<path class="line" d="M6965.9 -5229.2 L6965.9 -5461.0 "/>
<path class="line" d="M7442.2 -5692.8 L6489.7 -5692.8 "/>
<path class="line" d="M6965.9 -5461.0 L6965.9 -5692.8 "/>
<path class="line" d="M6965.9 -5808.7 L6865.9 -5708.7 "/>
<path class="line" d="M6965.9 -5808.7 L7065.9 -5708.7 "/>
<path class="line" d="M6965.9 -5692.8 L6965.9 -5808.7 "/>
<path class="line" d="M635.0 1225.5 L635.0 1587.5 "/>
<path class="line" d="M635.0 1587.5 L-527.0 1587.5 "/>
<path class="line" d="M-527.0 1587.5 L-527.0 1225.5 "/>
</g>
<g class="premium" id="objectlines"/>
<g id="walls">
<g>
<path class="halfwall-fill" d="M6489.7-5924.5v927.1h-57.1h-57.2v-927.1l57.2-19.1Z"/>
<path class="halfwall-outline" d="M6489.7 -5924.5 L6489.7 -4997.4 M6375.4 -4997.4 L6375.4 -5924.5 "/>
</g>
<g>
<path class="halfwall-fill" d="M6489.7-4997.4v127h-57.1h-57.2v-127h57.2Z"/>
<path class="halfwall-outline" d="M6489.7 -4997.4 L6489.7 -4870.4 L6375.4 -4870.4 L6375.4 -4997.4 "/>
</g>
<path class="line" d="M7645.4 4311.6 L7645.4 1225.5 L7550.1 1181.1 "/>
<path class="line" d="M-4965.7 -44.4 L-5067.3 -31.7 L-5067.3 4311.6 "/>
<path class="line" d="M-5067.3 4311.6 L7645.4 4311.6 "/>
<path class="wall" d="M3352.8-11417.3v1117.6l-184.2 114.3l-107.9-190.5v-1130.3h107.9ZM7874-11341.1H7645.4l-95.3-165.1v-50.8h108l107.9 50.8ZM-1708.2-14674.9v2952.8h-165.1l-50.8-57.2v-2679.7l50.8-107.9ZM-3625.8-14674.9h1917.7l-165.1 108l-50.8 107.9H-3556l-69.8-108ZM-5073.6-14674.9h1447.8v108l-44.5 107.9H-4857.8l-107.9-108ZM-5073.6-13766.8v-908.1l107.9 108l108 108v654l-107.9 38.1ZM-1924-10229.9v-1422.4l50.8-69.9h165.1v1346.3l-165.1 190.5ZM7658.1-17672H3365.5l-196.8-108l-108-107.9H7874L7766-17780ZM7645.4-5943.6v946.1h-95.3H7442.2v-927.1l107.9-19ZM7645.4-7169.1v1225.6h-95.3l-107.9-95.3V-7112l107.9-57.1ZM1517.7-5073.6v-767.6l38.1-19.8l127 16.2v885.5l-127-57.1ZM1041.4-5905.5v-52.8l-95.3 110L889-5828.1v-7.5l57.1-69.9ZM-1790.7-4959.4v1144.2l-82.5-45.6l-69.9-45.5V-5016.5h69.8ZM-1816.1-10160v4234.6l-57.2 58h-82.5v-4260.9l82.5-57.1ZM3352.8-10299.7v3048l-76.2 82.5l-63.5-82.5V-10160l63.5-25.4ZM3352.8-10299.7l-76.2 114.3l-63.5 25.4h-44.5v-25.4ZM5245.1-7251.7H7467.6l82.6 82.6l-108 57.1H5302.3l-57.1-57.1ZM-1816.1-5811.1v356.5h-57.2l-82.5-57.2v-355.6h82.5ZM-1803.4-5454.6v381l-69.8 57.1h-69.9v-381l69.9-57.1ZM1041.4-5958.3l511.9-10.7l2.4 108l-38.1 19.8L889-5828.1l57.1-20.2ZM990.6-8839.2h825.5v69.9v57.1H1003.3l-57.1-57.1ZM590.5-5962.6H889l57.1 57.1L889-5835.6H660.4l-69.9-69.9ZM6432.5-5943.6l57.1 19.1h-57.1h-57.1ZM7442.2-5924.5H6489.7l-57.1-19.1v-95.2H7442.2l107.9 95.3ZM5302.2-6038.8H6432.5v95.3l-57.1 19H5245.5l-0.4-19.1ZM-3143.2-11652.3v1422.4l-57.2 44.5l-57.1 57.1v-1524l57.1-69.9ZM-1803.4-5073.6H546.1l44.5 57.1v57.2H-1790.7l-82.5-57.1ZM1003.3-8712.2v1460.5l-57.1 82.6H889V-8769.4h57.1ZM-2908.3-5511.8h952.5l82.5 57.1l-69.8 57.2h-965.2v-57.2ZM660.4-5835.6v762l-69.9 57.1l-44.4-57.1v-774l44.4-57.9ZM-3556-14458.9v768.4l-69.8-76.3l-44.5-38.1v-654l44.5-108ZM-3143.2-10229.9h1219.2l50.8 44.5l-82.6 57.1H-3257.5l57.2-57.1ZM990.6-10160v1320.8l-44.4 69.9H889V-10160l57.1-25.4ZM3365.5-17672V-11557l-196.8 50.8h-108V-17888l107.9 108ZM-1822.4-158.8V1073.1l-108 108l-107.9 44.4V-31.7l108-12.7ZM-4851.4-11652.3v5784.8h-114.3h-101.6v-5854.7h101.6ZM-4851.4-3859.2V-158.8L-4965.7-44.4l-101.6 12.7V-3905.3h101.6ZM7874-17888v6546.9L7766-11506.2l-107.9-50.8V-17672l107.9-108ZM-1708.2-10375.9H946.1v190.5L889-10160H-1816.1l-57.2-25.4ZM946.1-10375.9H3060.7l107.9 190.5v25.4H990.6l-44.4-25.4ZM-4857.8-13690.6v1911.3l-107.9 57.2h-108v-2044.7h107.9ZM-4851.4-5867.4v1919.3l-114.3 42.8h-101.6V-5867.4h101.6ZM7645.4-4997.4v6223l-95.3-44.5l-107.9-107.9V-4997.4h107.9ZM7645.4-11341.1v4171.9h-95.3l-82.5-82.5v-4165.6l82.6-88.9ZM-1822.4 1073.1H7442.2l107.9 108l95.3 44.4H-2038.3l108-44.5ZM1041.4-7112v1206.5H946.1L889-5962.6V-7169.1h57.1ZM3365.5-11557H7550.1v50.8l-82.6 88.9H3352.8l-184.2-88.9ZM1003.3-7251.7H3213.1l63.5 82.6v57.1H1041.4l-95.3-57.1ZM5188-7112H3276.6v-57.1l76.2-82.6H5245.1v82.6ZM1553.3-5969L5188-6050.3l57.1 106.7l0.5 19l-3562.8 79.8l-127-16.3ZM-4857.8-11779.3h1657.4v57.1l-57.2 69.9H-4851.4l-114.3-69.9ZM-3200.4-11779.3H-1924l50.8 57.1l-50.8 69.9H-3143.2l-57.2-69.9ZM-4851.4-158.8h3028.9L-1930.4-44.4l-107.9 12.7h-3029l101.6-12.7ZM660.4-5073.6h857.3l38.1 57.1l127 57.2H590.5v-57.1ZM-1816.1-5925.4l2406.7-37.2v57.1l-44.5 57.9l-2362.2 36.5l-57.2-56.3ZM-4857.8-13804.9h1187.5l44.4 38.1l69.8 76.2H-4857.8l-107.9-76.2ZM5302.3-7112v1073.2l-57.2 95.2l-57.1-106.7V-7112l57.1-57.1ZM-4851.4-3948.1l2908.3 41.8l69.8 45.5l82.6 45.6l-3060.7-44l-114.3-46.1Z"/>
</g>
<g id="structural-objects">
<g class="window" id="window42" transform="translate(3213.1,  -14636.9) rotate(-270.00) scale(1, 1)">
<rect class="window-rect" height="304.79999999999995" width="1651" x="-825.5" y="-152.39999999999998"/>
<use height="304.79999999999995" width="1651" x="-825.5" xlink:href="#file-windows-1-Standard.svg" y="-152.39999999999998"/>
</g>
<g class="window" id="window32" transform="translate(-1930.4,  517.5) rotate(-270.00) scale(1, 1)">
<rect class="window-rect" height="215.89999999999998" width="482.59999999999997" x="-241.29999999999998" y="-107.94999999999999"/>
<use height="215.89999999999998" width="482.59999999999997" x="-241.29999999999998" xlink:href="#file-windows-1-Standard.svg" y="-107.94999999999999"/>
</g>
<g class="door" id="door46" transform="translate(-4959.3,  -8655.9) rotate(-270.00) scale(-1, 1)">
<rect class="door-rect" height="215.89999999999998" width="838.19999999999993" x="-419.09999999999997" y="-107.94999999999999"/>
<use height="838.19999999999993" width="838.19999999999993" x="-419.09999999999997" xlink:href="#file-doors-1-Standard.svg" y="-419.09999999999997"/>
</g>
<g class="window" id="window33" transform="translate(-4959.3,  -10772.6) rotate(-270.00) scale(1, 1)">
<rect class="window-rect" height="215.89999999999998" width="1066.8" x="-533.39999999999998" y="-107.94999999999999"/>
<use height="215.89999999999998" width="1066.8" x="-533.39999999999998" xlink:href="#file-windows-1-Standard.svg" y="-107.94999999999999"/>
</g>
<g class="window" id="window35" transform="translate(-4959.3,  -6873.7) rotate(-270.00) scale(1, 1)">
<rect class="window-rect" height="215.89999999999998" width="1651" x="-825.5" y="-107.94999999999999"/>
<use height="215.89999999999998" width="1651" x="-825.5" xlink:href="#file-windows-1-Standard.svg" y="-107.94999999999999"/>
</g>
<g class="window" id="window37" transform="translate(-4959.3,  -2077.0) rotate(-270.00) scale(1, 1)">
<rect class="window-rect" height="215.89999999999998" width="2159" x="-1079.5" y="-107.94999999999999"/>
<use height="215.89999999999998" width="2159" x="-1079.5" xlink:href="#file-windows-1-Standard.svg" y="-107.94999999999999"/>
</g>
<g class="window" id="window38" transform="translate(7766.0,  -15590.5) rotate(-270.00) scale(1, 1)">
<rect class="window-rect" height="215.89999999999998" width="3302" x="-1651" y="-107.94999999999999"/>
<use height="215.89999999999998" width="3302" x="-1651" xlink:href="#file-windows-1-Standard.svg" y="-107.94999999999999"/>
</g>
<g class="door" id="door47" transform="translate(7766.0,  -12906.1) rotate(-270.00) scale(-1, -1)">
<rect class="door-rect" height="215.89999999999998" width="1828.8" x="-914.39999999999998" y="-107.94999999999999"/>
<use height="153.12090823084199" width="1828.8" x="-914.39999999999998" xlink:href="#file-doors-5-Sliding.svg" y="-76.560454115420995"/>
</g>
<g class="window" id="window39" transform="translate(-467.9,  -10267.9) rotate(-0.00) scale(1, 1)">
<rect class="window-rect" height="215.90000000000001" width="1778" x="-889" y="-107.95"/>
<use height="215.90000000000001" width="1778" x="-889" xlink:href="#file-windows-1-Standard.svg" y="-107.95"/>
</g>
<g class="window" id="window40" transform="translate(2104.7,  -10267.9) rotate(-0.00) scale(1, 1)">
<rect class="window-rect" height="215.90000000000001" width="1066.8" x="-533.39999999999998" y="-107.95"/>
<use height="215.90000000000001" width="1066.8" x="-533.39999999999998" xlink:href="#file-windows-1-Standard.svg" y="-107.95"/>
</g>
<g class="window" id="window41" transform="translate(-4965.7,  -13004.1) rotate(-270.00) scale(1, 1)">
<rect class="window-rect" height="215.89999999999998" width="1066.8" x="-533.39999999999998" y="-107.94999999999999"/>
<use height="215.89999999999998" width="1066.8" x="-533.39999999999998" xlink:href="#file-windows-1-Standard.svg" y="-107.94999999999999"/>
</g>
<g class="window" id="window34" transform="translate(-4959.3,  -4692.2) rotate(-270.00) scale(1, 1)">
<rect class="window-rect" height="215.89999999999998" width="1092.2" x="-546.10000000000002" y="-107.94999999999999"/>
<use height="215.89999999999998" width="1092.2" x="-546.10000000000002" xlink:href="#file-windows-1-Standard.svg" y="-107.94999999999999"/>
</g>
<g class="window" id="window29" transform="translate(7543.8,  -3549.2) rotate(-270.00) scale(1, 1)">
<rect class="window-rect" height="203.19999999999999" width="863.59999999999991" x="-431.79999999999995" y="-101.59999999999999"/>
<use height="203.19999999999999" width="863.59999999999991" x="-431.79999999999995" xlink:href="#file-windows-1-Standard.svg" y="-101.59999999999999"/>
</g>
<g class="window" id="window30" transform="translate(7543.8,  -486.0) rotate(-270.00) scale(1, 1)">
<rect class="window-rect" height="203.19999999999999" width="812.79999999999995" x="-406.39999999999998" y="-101.59999999999999"/>
<use height="203.19999999999999" width="812.79999999999995" x="-406.39999999999998" xlink:href="#file-windows-1-Standard.svg" y="-101.59999999999999"/>
</g>
<g class="door" id="door45" transform="translate(7543.8,  -2045.7) rotate(-270.00) scale(-1, -1)">
<rect class="door-rect" height="203.19999999999999" width="1727.1999999999998" x="-863.59999999999991" y="-101.59999999999999"/>
<use height="144.6141911069063" width="1727.1999999999998" x="-863.59999999999991" xlink:href="#file-doors-5-Sliding.svg" y="-72.307095553453152"/>
</g>
<g class="window" id="window31" transform="translate(7556.5,  -8698.8) rotate(-270.00) scale(1, 1)">
<rect class="window-rect" height="177.80000000000001" width="1092.2" x="-546.10000000000002" y="-88.900000000000006"/>
<use height="177.80000000000001" width="1092.2" x="-546.10000000000002" xlink:href="#file-windows-1-Standard.svg" y="-88.900000000000006"/>
</g>
<g class="window" id="window27" transform="translate(2805.0,  1149.3) rotate(0.00) scale(1, 1)">
<rect class="window-rect" height="152.39999999999998" width="3911.5999999999999" x="-1955.8" y="-76.199999999999989"/>
<use height="152.39999999999998" width="3911.5999999999999" x="-1955.8" xlink:href="#file-windows-1-Standard.svg" y="-76.199999999999989"/>
</g>
<g class="window" id="window28" transform="translate(6143.1,  1149.3) rotate(0.00) scale(1, 1)">
<rect class="window-rect" height="152.39999999999998" width="787.39999999999998" x="-393.69999999999999" y="-76.199999999999989"/>
<use height="152.39999999999998" width="787.39999999999998" x="-393.69999999999999" xlink:href="#file-windows-1-Standard.svg" y="-76.199999999999989"/>
</g>
<g class="door" id="door43" transform="translate(-433.5,  1149.3) rotate(0.00) scale(1, 1)">
<rect class="door-rect" height="152.39999999999998" width="1778" x="-889" y="-76.199999999999989"/>
<use height="148.86754966887418" width="1778" x="-889" xlink:href="#file-doors-5-Sliding.svg" y="-74.433774834437088"/>
</g>
<g class="door" id="door44" transform="translate(965.2,  -6526.4) rotate(-270.00) scale(-1, -1)">
<rect class="door-rect" height="152.40000000000001" width="762" x="-381" y="-76.200000000000003"/>
<use height="762" width="762" x="-381" xlink:href="#file-doors-1-Standard.svg" y="-381"/>
</g>
<g class="door" id="door40" transform="translate(5645.7,  -11487.1) rotate(0.00) scale(1, 1)">
<rect class="door-rect" height="139.69999999999999" width="787.39999999999998" x="-393.69999999999999" y="-69.849999999999994"/>
<use height="787.39999999999998" width="787.39999999999998" x="-393.69999999999999" xlink:href="#file-doors-1-Standard.svg" y="-393.69999999999999"/>
</g>
<g class="door" id="door41" transform="translate(2762.6,  -7181.8) rotate(0.00) scale(-1, 1)">
<rect class="door-rect" height="139.69999999999999" width="762" x="-381" y="-69.849999999999994"/>
<use height="762" width="762" x="-381" xlink:href="#file-doors-1-Standard.svg" y="-381"/>
</g>
<g class="door" id="door42" transform="translate(3782.3,  -7181.8) rotate(-180.00) scale(-1, -1)">
<rect class="door-rect" height="139.69999999999999" width="762" x="-381" y="-69.849999999999994"/>
<use height="762" width="762" x="-381" xlink:href="#file-doors-1-Standard.svg" y="-381"/>
</g>
<g class="door" id="door37" transform="translate(4679.5,  -5975.4) rotate(-1.28) scale(-1, 1)">
<rect class="door-rect" height="126.99999999999999" width="762" x="-381" y="-63.499999999999993"/>
<use height="762" width="762" x="-381" xlink:href="#file-doors-1-Standard.svg" y="-381"/>
</g>
<g class="door" id="door38" transform="translate(-4035.7,  -11715.8) rotate(0.00) scale(1, 1)">
<rect class="door-rect" height="127" width="812.79999999999995" x="-406.39999999999998" y="-63.5"/>
<use height="812.79999999999984" width="812.79999999999995" x="-406.39999999999998" xlink:href="#file-doors-1-Standard.svg" y="-406.39999999999992"/>
</g>
<g class="door" id="door39" transform="translate(-2555.8,  -11715.8) rotate(0.00) scale(-1, 1)">
<rect class="door-rect" height="127" width="1168.3999999999999" x="-584.19999999999993" y="-63.5"/>
<use height="1265.7666666666667" width="1168.3999999999999" x="-584.19999999999993" xlink:href="#file-doors-3-Walkway.svg" y="-632.88333333333333"/>
</g>
<g class="window" id="window36" transform="translate(-3358.4,  -95.2) rotate(0.00) scale(1, 1)">
<rect class="window-rect" height="127.00000000000004" width="1600.1999999999998" x="-800.09999999999991" y="-63.500000000000021"/>
<use height="127.00000000000004" width="1600.1999999999998" x="-800.09999999999991" xlink:href="#file-windows-1-Standard.svg" y="-63.500000000000021"/>
</g>
<g class="door" id="door33" transform="translate(993.9,  -5016.5) rotate(0.00) scale(1, -1)">
<rect class="door-rect" height="114.3" width="609.59999999999991" x="-304.79999999999995" y="-57.149999999999999"/>
<use height="609.59999999999991" width="609.59999999999991" x="-304.79999999999995" xlink:href="#file-doors-1-Standard.svg" y="-304.79999999999995"/>
</g>
<g class="door" id="door34" transform="translate(-626.4,  -5886.7) rotate(-0.89) scale(1, 1)">
<rect class="door-rect" height="114.3" width="609.59999999999991" x="-304.79999999999995" y="-57.149999999999999"/>
<use height="609.59999999999991" width="609.59999999999991" x="-304.79999999999995" xlink:href="#file-doors-1-Standard.svg" y="-304.79999999999995"/>
</g>
<g class="door" id="door35" transform="translate(-4116.7,  -13747.8) rotate(0.00) scale(-1, -1)">
<rect class="door-rect" height="114.29999999999998" width="863.59999999999991" x="-431.79999999999995" y="-57.149999999999991"/>
<use height="796.41907151819328" width="863.59999999999991" x="-431.79999999999995" xlink:href="#file-doors-6-Fold.svg" y="-398.20953575909664"/>
</g>
<g class="door" id="door36" transform="translate(5245.1,  -6519.5) rotate(-270.00) scale(1, -1)">
<rect class="door-rect" height="114.3" width="533.39999999999998" x="-266.69999999999999" y="-57.149999999999999"/>
<use height="533.39999999999998" width="533.39999999999998" x="-266.69999999999999" xlink:href="#file-doors-1-Standard.svg" y="-266.69999999999999"/>
</g>
<g class="door" id="door32" transform="translate(-3284.2,  -3881.1) rotate(-359.18) scale(-1, -1)">
<rect class="door-rect" height="88.899999999999991" width="762" x="-381" y="-44.449999999999996"/>
<use height="762" width="762" x="-381" xlink:href="#file-doors-1-Standard.svg" y="-381"/>
</g>
<g class="object" id="object1" transform="translate(-1935.6,  4165.9) rotate(0.00) scale(1, 1)">
<use height="152.39999999999992" width="152.39999999999992" x="-76.19999999999996" xlink:href="#file-objects-STRUCTURAL-Column_R.svg" y="-76.19999999999996"/>
</g>
<g class="object" id="object2" transform="translate(1225.5,  4159.3) rotate(0.00) scale(1, 1)">
<use height="152.39999999999992" width="152.39999999999992" x="-76.19999999999996" xlink:href="#file-objects-STRUCTURAL-Column_R.svg" y="-76.19999999999996"/>
</g>
<g class="object" id="object3" transform="translate(4349.2,  4179.0) rotate(0.00) scale(1, 1)">
<use height="152.39999999999992" width="152.39999999999992" x="-76.19999999999996" xlink:href="#file-objects-STRUCTURAL-Column_R.svg" y="-76.19999999999996"/>
</g>
<g class="object" id="object7" transform="translate(7479.9,  4203.7) rotate(0.00) scale(1, 1)">
<use height="152.39999999999992" width="152.39999999999992" x="-76.19999999999996" xlink:href="#file-objects-STRUCTURAL-Column_R.svg" y="-76.19999999999996"/>
</g>
<g class="object" id="object6" transform="translate(-4991.0,  4116.7) rotate(0.00) scale(1, 1)">
<use height="152.39999999999992" width="152.39999999999992" x="-76.19999999999996" xlink:href="#file-objects-STRUCTURAL-Column_R.svg" y="-76.19999999999996"/>
</g>
<g class="object" id="object4" transform="translate(-4918.5,  2029.6) rotate(0.00) scale(1, 1)">
<use height="152.39999999999992" width="152.39999999999992" x="-76.19999999999996" xlink:href="#file-objects-STRUCTURAL-Column_R.svg" y="-76.19999999999996"/>
</g>
<g class="object" id="object5" transform="translate(-4914.6,  -60.6) rotate(0.00) scale(1, 1)">
<use height="152.39999999999992" width="152.39999999999992" x="-76.19999999999996" xlink:href="#file-objects-STRUCTURAL-Column_R.svg" y="-76.19999999999996"/>
</g>
<g class="object" id="object8" transform="translate(3365.5,  -10255.3) rotate(0.00) scale(1, 1)">
<use height="101.59999999999992" width="101.59999999999992" x="-50.799999999999962" xlink:href="#file-objects-STRUCTURAL-Column_R.svg" y="-50.799999999999962"/>
</g>
</g>
<g class="premium" id="nonstructural-objects"/>
<g class="ceiling" id="ceilingLines"/>
<g class="ceiling" id="ceiling-objects"/>
<defs>
<mask id="floor1__wall-holes">
<rect fill="white" height="22219.6" width="13252.4" x="-5378.4" y="-17888.0"/>
<path d="M3375.5-15452.4v1631H3050.7v-1631h324.8ZM-1812.5 286.2V748.8h-235.9V286.2h235.9ZM-4841.4-9065v818.2h-235.9V-9065h235.9ZM-4841.4-11296v1046.8h-235.9V-11296h235.9ZM-4841.4-7689.2v1631h-235.9v-1631h235.9ZM-4841.4-3146.5v2139h-235.9v-2139h235.9ZM7884-17231.5v3282H7648.1v-3282H7884ZM7884-13810.5v1808.8H7648.1v-1808.8H7884ZM-1346.9-10385.9h1758v235.9h-1758v-235.9ZM1581.3-10385.9H2628.1v235.9H1581.3v-235.9ZM-4847.8-13527.5v1046.8h-235.9v-1046.8h235.9ZM-4841.4-5228.3v1072.2h-235.9V-5228.3h235.9ZM7655.4-3971v843.6H7432.2V-3971h223.2ZM7655.4-882.4V-89.6H7432.2V-882.4h223.2ZM7655.4-2899.3v1707.2H7432.2V-2899.3h223.2ZM7655.4-9234.9v1072.2H7457.6V-9234.9h197.8ZM859.2 1063.1H4750.8v172.4H859.2V1063.1ZM5759.4 1063.1h767.4v172.4H5759.4V1063.1ZM-1312.5 1063.1h1758v172.4h-1758V1063.1ZM1051.4-6897.4v742H879v-742h172.4ZM5262-11567h767.4v159.7H5262V-11567ZM2391.6-7261.7h742V-7102h-742v-159.7ZM4153.3-7102h-742v-159.7h742V-7102ZM4307-6040.6l741.8-16.6l3.3 147l-741.8 16.6l-3.3-147ZM-4432.1-11789.3h792.8v147h-792.8v-147ZM-3130-11789.3h1148.4v147H-3130v-147ZM-4148.5-168.8h1580.2v147H-4148.5v-147ZM699.1-5083.6h589.6v134.3H699.1v-134.3ZM-922.3-5949.3l589.5-9.1l2.1 134.3l-589.5 9.1l-2.1-134.3ZM-4538.5-13814.9h843.6v134.3h-843.6v-134.3ZM5312.3-6776.2v513.4H5177.9v-513.4h134.3ZM-3654.4-3940.9l741.9 10.7l-1.5 108.9l-742-10.7l1.6-108.9Z" fill="black"/>
</mask>
</defs>
<g id="labels"><g><rect x="-621.425000" y="1667.625000" width="5223.000000" height="2030.000000"  transform="rotate(-0.000000, 1990.075000, 2682.625000)" /><text text-anchor="middle" font-size="321.247229" font-family="Arial" transform="translate(1990.075000 2791.849058) rotate(-0.000000)">PATIO</text></g><g><rect x="-5212.208594" y="-9390.535156" width="3594.000000" height="2164.000000"  transform="rotate(-90.000000, -3415.208594, -8308.535156)" /><text text-anchor="middle" font-size="321.247229" font-family="Arial" transform="translate(-3415.208594 -8554.289286) rotate(0.000000)">KITCHEN</text><text text-anchor="middle" font-size="321.247229" font-family="Arial" transform="translate(-3415.208594 -8205.736043) rotate(0.000000)">9&#39;6&#34; x 19&#39;</text><text text-anchor="middle" font-size="321.247229" font-family="Arial" transform="translate(-3415.208594 -7857.182800) rotate(0.000000)">159 sq ft</text></g><g><rect x="-4485.657812" y="-5238.720312" width="2220.000000" height="1005.000000"  transform="rotate(-0.000000, -3375.657812, -4736.220312)" /><text text-anchor="middle" font-size="321.247229" font-family="Arial" transform="translate(-3375.657812 -4981.974443) rotate(-0.000000)">BREAKFAST</text><text text-anchor="middle" font-size="321.247229" font-family="Arial" transform="translate(-3375.657812 -4633.421199) rotate(-0.000000)">9&#39;6&#34; x 6&#39;4&#34;</text><text text-anchor="middle" font-size="321.247229" font-family="Arial" transform="translate(-3375.657812 -4284.867956) rotate(-0.000000)">60 sq ft</text></g><g><rect x="3714.800000" y="-17348.525000" width="3594.000000" height="5468.000000"  transform="rotate(-0.000000, 5511.800000, -14614.525000)" /><text text-anchor="middle" font-size="321.247229" font-family="Arial" transform="translate(5511.800000 -14860.279130) rotate(-0.000000)">STORAGE</text><text text-anchor="middle" font-size="321.247229" font-family="Arial" transform="translate(5511.800000 -14511.725887) rotate(-0.000000)">14&#39;1&#34; x 20&#39;1&#34;</text><text text-anchor="middle" font-size="321.247229" font-family="Arial" transform="translate(5511.800000 -14163.172643) rotate(-0.000000)">283 sq ft</text></g><g><rect x="3714.200000" y="-11052.500000" width="3392.000000" height="3436.000000"  transform="rotate(-90.000000, 5410.200000, -9334.500000)" /><text text-anchor="middle" font-size="321.247229" font-family="Arial" transform="translate(5410.200000 -9580.254130) rotate(0.000000)">BEDROOM</text><text text-anchor="middle" font-size="321.247229" font-family="Arial" transform="translate(5410.200000 -9231.700887) rotate(0.000000)">13&#39;6&#34; x 13&#39;8&#34;</text><text text-anchor="middle" font-size="321.247229" font-family="Arial" transform="translate(5410.200000 -8883.147643) rotate(0.000000)">185 sq ft</text></g><g><rect x="1260.670312" y="-9280.554688" width="2220.000000" height="1060.000000"  transform="rotate(-90.000000, 2370.670312, -8750.554688)" /><text text-anchor="middle" font-size="321.247229" font-family="Arial" transform="translate(2316.058284 -8750.554688) rotate(270.000000)">4PC BATH</text><text text-anchor="middle" font-size="321.247229" font-family="Arial" transform="translate(2664.611527 -8750.554688) rotate(270.000000)">7&#39;3&#34; x 9&#39;6&#34;</text></g><g><rect x="-1773.266632" y="-5812.103685" width="2302.000000" height="720.000000"  transform="rotate(-0.000000, -622.266632, -5452.103685)" /><text text-anchor="middle" font-size="321.247229" font-family="Arial" transform="translate(-622.266632 -5342.879628) rotate(-0.000000)">CLOSET</text></g><g><rect x="1048.825047" y="-7064.656686" width="4074.000000" height="1014.000000"  transform="rotate(-0.000000, 3085.825047, -6557.656686)" /><text text-anchor="middle" font-size="321.247229" font-family="Arial" transform="translate(3085.825047 -6448.432628) rotate(-0.000000)">HALL</text></g><g><rect x="-4538.078125" y="-13573.434375" width="2352.000000" height="1494.000000"  transform="rotate(-0.000000, -3362.078125, -12826.434375)" /><text text-anchor="middle" font-size="321.247229" font-family="Arial" transform="translate(-3362.078125 -12881.046404) rotate(-0.000000)">LAUNDRY</text><text text-anchor="middle" font-size="321.247229" font-family="Arial" transform="translate(-3362.078125 -12532.493161) rotate(-0.000000)">9&#39;8&#34; x 8&#39;10&#34;</text></g><g><rect x="-4854.025000" y="-14452.925000" width="1180.000000" height="642.000000"  transform="rotate(-0.000000, -4264.025000, -14131.925000)" /><text text-anchor="middle" font-size="321.247229" font-family="Arial" transform="translate(-4264.025000 -14022.700942) rotate(-0.000000)">CLO</text></g><g><rect x="73.323438" y="-3903.093829" width="5720.000000" height="4594.000000"  transform="rotate(-0.000000, 2933.323438, -1606.093829)" /><text text-anchor="middle" font-size="321.247229" font-family="Arial" transform="translate(2933.323438 -1851.847960) rotate(-0.000000)">LIVING</text><text text-anchor="middle" font-size="321.247229" font-family="Arial" transform="translate(2933.323438 -1503.294716) rotate(-0.000000)">30&#39;4&#34; x 22&#39;10&#34;</text><text text-anchor="middle" font-size="321.247229" font-family="Arial" transform="translate(2933.323438 -1154.741473) rotate(-0.000000)">647 sq ft</text></g><g><rect x="5322.225000" y="-7082.425000" width="2100.000000" height="1014.000000"  transform="rotate(-0.000000, 6372.225000, -6575.425000)" /><text text-anchor="middle" font-size="321.247229" font-family="Arial" transform="translate(6372.225000 -6466.200942) rotate(-0.000000)">STORAGE</text></g><g><rect x="-2260.600000" y="-9064.000000" width="3594.000000" height="2042.000000"  transform="rotate(-90.000000, -463.600000, -8043.000000)" /><text text-anchor="middle" font-size="321.247229" font-family="Arial" transform="translate(-463.600000 -8288.754130) rotate(0.000000)">BEDROOM</text><text text-anchor="middle" font-size="321.247229" font-family="Arial" transform="translate(-463.600000 -7940.200887) rotate(0.000000)">8&#39;10&#34; x 13&#39;10&#34;</text><text text-anchor="middle" font-size="321.247229" font-family="Arial" transform="translate(-463.600000 -7591.647643) rotate(0.000000)">123 sq ft</text></g><g><rect x="680.076234" y="-5814.291694" width="819.000000" height="720.000000"  transform="rotate(-0.000000, 1089.576234, -5454.291694)" /><text text-anchor="middle" font-size="321.247229" font-family="Arial" transform="translate(1089.576234 -5345.067637) rotate(-0.000000)">CL</text></g><g><rect x="-4831.400000" y="-3223.152493" width="3020.000000" height="2428.000000"  transform="rotate(-90.000000, -3321.400000, -2009.152493)" /><text text-anchor="middle" font-size="321.247229" font-family="Arial" transform="translate(-3321.400000 -2254.906623) rotate(0.000000)">DINING</text><text text-anchor="middle" font-size="321.247229" font-family="Arial" transform="translate(-3321.400000 -1906.353379) rotate(0.000000)">10&#39;1&#34; x 12&#39;1&#34;</text><text text-anchor="middle" font-size="321.247229" font-family="Arial" transform="translate(-3321.400000 -1557.800136) rotate(0.000000)">121 sq ft</text></g><g><rect x="-3956.650000" y="-11443.550000" width="2846.000000" height="1005.000000"  transform="rotate(-0.000000, -2533.650000, -10941.050000)" /><text text-anchor="middle" font-size="289.615249" font-family="Arial" transform="translate(-2533.650000 -11162.605666) rotate(-0.000000)">ELECTRICAL ROOM</text><text text-anchor="middle" font-size="289.615249" font-family="Arial" transform="translate(-2533.650000 -10848.373120) rotate(-0.000000)">4&#39; x 4&#39;8&#34;</text><text text-anchor="middle" font-size="289.615249" font-family="Arial" transform="translate(-2533.650000 -10534.140575) rotate(-0.000000)">19 sq ft</text></g><g><text text-anchor="middle" alignment-baseline="middle" font-size="321.247229" font-family="Arial" transform="translate(6583.543313 -1867.181402) rotate(-0.000000)">FOYER</text></g><g><text text-anchor="middle" alignment-baseline="middle" font-size="321.247229" font-family="Arial" transform="translate(6965.950000 -4765.675000) rotate(-0.000000)">UP</text></g><g><text text-anchor="middle" alignment-baseline="middle" font-size="321.247229" font-family="Arial" transform="translate(2875.450557 -5188.937112) rotate(-0.000000)">F/P</text></g></g></svg>
