<svg width="19" height="16" fill="none" xmlns="http://www.w3.org/2000/svg"><path d="M2.8.933l6.133 6.134c.134.133.228.277.283.433.056.156.084.322.084.5s-.028.344-.084.5c-.055.156-.15.3-.283.433L2.8 15.067c-.244.244-.55.372-.916.384a1.244 1.244 0 01-.95-.384c-.245-.245-.367-.556-.367-.934 0-.377.122-.688.366-.933L6.1 8 .933 2.8a1.3 1.3 0 01-.382-.916 1.24 1.24 0 01.382-.95c.245-.245.556-.367.934-.367s.689.122.933.366zm8.8 0l6.133 6.134c.134.133.228.277.283.433.056.156.084.322.084.5s-.028.344-.084.5c-.055.156-.15.3-.283.433L11.6 15.067c-.244.244-.55.372-.917.384a1.243 1.243 0 01-.95-.384c-.244-.245-.366-.556-.366-.934 0-.377.122-.688.366-.933L14.9 8 9.733 2.8a1.305 1.305 0 01-.384-.916c-.01-.367.118-.684.384-.95.245-.245.556-.367.934-.367.377 0 .689.122.933.366z" fill="#F2F2F2"/></svg>