<svg id="Layer_1" data-name="Layer 1" xmlns="http://www.w3.org/2000/svg" version="1.1" viewBox="0 0 512 512"><defs><style>.cls-1,.cls-2{fill:none;stroke:#449fdb}.cls-2{isolation:isolate;opacity:.3}.cls-3{fill:#fff;stroke-width:0}</style></defs><g id="Layer_1-2" data-name="Layer 1-2"><g id="icomoon-ignore"><path class="cls-2" d="M16 0v512"/><path class="cls-1" d="M32 0v512"/><path class="cls-2" d="M48 0v512"/><path class="cls-1" d="M64 0v512"/><path class="cls-2" d="M80 0v512"/><path class="cls-1" d="M96 0v512"/><path class="cls-2" d="M112 0v512"/><path class="cls-1" d="M128 0v512"/><path class="cls-2" d="M144 0v512"/><path class="cls-1" d="M160 0v512"/><path class="cls-2" d="M176 0v512"/><path class="cls-1" d="M192 0v512"/><path class="cls-2" d="M208 0v512"/><path class="cls-1" d="M224 0v512"/><path class="cls-2" d="M240 0v512"/><path class="cls-1" d="M256 0v512"/><path class="cls-2" d="M272 0v512"/><path class="cls-1" d="M288 0v512"/><path class="cls-2" d="M304 0v512"/><path class="cls-1" d="M320 0v512"/><path class="cls-2" d="M336 0v512"/><path class="cls-1" d="M352 0v512"/><path class="cls-2" d="M368 0v512"/><path class="cls-1" d="M384 0v512"/><path class="cls-2" d="M400 0v512"/><path class="cls-1" d="M416 0v512"/><path class="cls-2" d="M432 0v512"/><path class="cls-1" d="M448 0v512"/><path class="cls-2" d="M464 0v512"/><path class="cls-1" d="M480 0v512"/><path class="cls-2" d="M496 0v512M0 16h512"/><path class="cls-1" d="M0 32h512"/><path class="cls-2" d="M0 48h512"/><path class="cls-1" d="M0 64h512"/><path class="cls-2" d="M0 80h512"/><path class="cls-1" d="M0 96h512"/><path class="cls-2" d="M0 112h512"/><path class="cls-1" d="M0 128h512"/><path class="cls-2" d="M0 144h512"/><path class="cls-1" d="M0 160h512"/><path class="cls-2" d="M0 176h512"/><path class="cls-1" d="M0 192h512"/><path class="cls-2" d="M0 208h512"/><path class="cls-1" d="M0 224h512"/><path class="cls-2" d="M0 240h512"/><path class="cls-1" d="M0 256h512"/><path class="cls-2" d="M0 272h512"/><path class="cls-1" d="M0 288h512"/><path class="cls-2" d="M0 304h512"/><path class="cls-1" d="M0 320h512"/><path class="cls-2" d="M0 336h512"/><path class="cls-1" d="M0 352h512"/><path class="cls-2" d="M0 368h512"/><path class="cls-1" d="M0 384h512"/><path class="cls-2" d="M0 400h512"/><path class="cls-1" d="M0 416h512"/><path class="cls-2" d="M0 432h512"/><path class="cls-1" d="M0 448h512"/><path class="cls-2" d="M0 464h512"/><path class="cls-1" d="M0 480h512"/><path class="cls-2" d="M0 496h512"/></g></g><path class="cls-3" d="M181.9 195.7h-78.2c-13.5 0-24.5 11-24.5 24.5v6.8H33.3C15.5 227 1 241.5 1 259.3v7.8c0 9.2 7.5 16.7 16.7 16.7h7.7l20.5 197.8c1.7 16.5 15.6 29 32.2 29h129.7c16.6 0 30.4-12.5 32.2-29l20.5-197.8h7.7c9.2 0 16.7-7.5 16.7-16.7v-7.8c0-17.8-14.5-32.3-32.3-32.3h-45.9v-6.8c0-13.5-11-24.5-24.5-24.5h-.3zm-85 25.6v-1c0-3.7 3-6.8 6.8-6.8h78.2c3.7 0 6.8 3 6.8 6.8v6.8H96.9v-5.8zm145.6 63.6l-20 194h-.1v.9c-.9 7.5-7.1 13.1-14.6 13.1H77.9c-7.5 0-13.7-5.6-14.5-13.1l-20.2-196h199.3v1.1zm9.8-40.2c8.1 0 14.6 6.6 14.6 14.6v6.8H18.7v-6.8c0-8.1 6.6-14.6 14.6-14.6h219z"/><path class="cls-3" d="M87.9 313.1h-.4c-4.8.3-8.6 4.5-8.3 9.4L87 447.7c.3 4.6 4.1 8.3 8.8 8.3h.6c4.8-.3 8.5-4.5 8.2-9.4l-7.8-125.2c-.3-4.7-4.1-8.3-8.9-8.3zm54.9-.1c-4.9 0-8.9 4-8.9 8.9v125.2c0 4.9 4 8.9 8.9 8.9s8.9-4 8.9-8.9V321.9c0-4.9-4-8.9-8.9-8.9zm47.4 142.9c4.4-.2 8-3.8 8.4-8.3l7.8-125.2c.3-4.9-3.4-9.1-8.3-9.3-4.9-.2-9.1 3.5-9.4 8.2l-7.8 125.2c-.1 2.4.7 4.6 2.2 6.4 1.3 1.5 3.1 2.5 5 2.8v-1h1c.7 0 1 .5 1 1.2h.1zm140.7-412c1.7 0 3.3-.4 4.9-1.1.6-.3 1.4-.7 2.2-1.4 9.9-7.5 21.4-13 33.4-16.1 3.1-.8 5.6-2.7 7.2-5.5 1.6-2.7 2-5.9 1.3-9-.8-3.1-2.7-5.6-5.5-7.2-2.7-1.6-5.9-2-9-1.3-15 3.9-29.5 10.9-41.8 20.2-5.3 4-6.3 11.3-2.3 16.6 2.3 3.1 5.9 4.8 9.5 4.8zm-36.6 80.3l.4-.2.2-.2c3.9-1.9 6.4-5.9 6.5-10.3.2-12.1 2.9-24.2 8.2-36.2 2.6-6-.2-13-6.1-15.7-6-2.6-13 .2-15.7 6.1-6.4 14.3-9.8 29.5-10.2 45.3-.1 3.2 1.1 6.3 3.3 8.6 2.2 2.3 5.2 3.5 8.3 3.5s3.4-.2 5.1-1.1zm123.2-99c12.2 3 23.5 8.4 33.5 16 2 1.5 4.5 2.3 7.1 2.3s2.8-.2 4.2-.7h2.3v-1.1c1.2-.8 2.2-1.7 3-2.8 1.9-2.6 2.7-5.7 2.3-8.8-.4-3.1-2.1-5.9-4.7-7.8-12.6-9.4-26.7-16.1-41.9-20-3.1-.8-6.2-.3-9 1.3-2.7 1.6-4.6 4.2-5.4 7.3-.8 3.1-.3 6.2 1.3 9 1.6 2.7 4.2 4.6 7.3 5.4zm-4 182.3c-12.5 2.5-24.9 2.5-37 0-6.5-1.4-12.7 2.7-14.1 9.2-.7 3.2 0 6.4 1.7 9 1.7 2.6 4.4 4.4 7.6 5.1 7.7 1.5 15.4 2.3 23 2.3 7.8 0 15.6-.8 23.4-2.4.7-.1 1.2-.3 1.7-.5h.5l.5-.2c5-2.2 7.9-7.8 6.7-13.2-1.4-6.4-7.7-10.5-14-9.2zm88.2-139.6v-.2l-.2-.5c-2.8-5.9-9.9-8.5-15.7-5.8-2.9 1.3-5.1 3.7-6.2 6.6-1 2.8-1 5.8.1 8.5v.2l.2.5c5.3 11.8 8.1 23.6 8.4 36.2.2 6.5 5.6 11.5 12.1 11.5h.2c1.2-.1 2.9-.3 4.4-1l.4-.2.3-.3c3.8-2.1 6.3-6.3 6.3-10.8-.4-15.7-3.9-30.8-10.3-44.8zm-167 119.8c-9.6-8-17.4-17.7-23.2-28.9-2.9-5.8-10-8.1-16-5.1-5.8 2.9-8.1 10-5.1 16 7.2 14 16.9 26.2 29 36.3 2.6 2.1 5.8 3.1 9 2.7v.8l3.6-1.8c1.6-.8 3.1-1.9 4.1-3.2 4.1-5 3.5-12.5-1.5-16.7zM494 153.3c-5.8-3-12.9-.7-16 5.2-5.6 11.1-13.3 20.8-23 29-4.9 4.3-5.5 11.8-1.4 16.7 2.3 2.7 5.6 4.2 9 4.2s3.3-.3 4.9-1h.1c1-.5 1.8-1.1 2.5-1.7h.2c12-10.2 21.6-22.5 28.8-36.5 1.5-2.8 1.7-6 .7-9.1-1-3-3.1-5.4-5.9-6.9zM330.9 322.7c1.7 0 3.3-.4 4.9-1.1.6-.3 1.4-.7 2.2-1.4 9.9-7.5 21.4-13 33.4-16.1 3.1-.8 5.6-2.7 7.2-5.5 1.6-2.7 2-5.9 1.3-9-.8-3.1-2.7-5.6-5.5-7.2-2.7-1.6-5.9-2-9-1.3-15 3.9-29.5 10.9-41.8 20.2-5.3 4-6.3 11.3-2.3 16.6 2.3 3.1 5.9 4.8 9.5 4.8zm-36.6 80.4l.4-.2.2-.2c3.9-1.9 6.4-5.9 6.5-10.3.2-12.1 2.9-24.2 8.2-36.2 2.6-6-.2-13-6.1-15.7-6-2.6-13 .2-15.7 6.1-6.4 14.3-9.8 29.5-10.2 45.3-.1 3.2 1.1 6.3 3.3 8.6 2.2 2.3 5.2 3.5 8.3 3.5s3.4-.2 5.1-1.1zm123.2-99c12.2 3 23.5 8.4 33.5 16 2 1.5 4.5 2.3 7.1 2.3s2.8-.2 4.2-.7h2.3v-1.1c1.2-.8 2.2-1.7 3-2.8 1.9-2.6 2.7-5.7 2.3-8.8-.4-3.1-2.1-5.9-4.7-7.8-12.6-9.4-26.7-16.1-41.9-20-3.1-.8-6.2-.3-9 1.3-2.7 1.6-4.6 4.2-5.4 7.3-.8 3.1-.3 6.2 1.3 9 1.6 2.7 4.2 4.6 7.3 5.4zm-4 182.3c-12.5 2.5-24.9 2.5-37 0-6.5-1.4-12.7 2.7-14.1 9.2-.7 3.2 0 6.4 1.7 9 1.7 2.6 4.4 4.4 7.6 5.1 7.7 1.5 15.4 2.3 23 2.3 7.8 0 15.6-.8 23.4-2.4.7-.1 1.2-.3 1.7-.5h.5l.5-.2c5-2.2 7.9-7.8 6.7-13.2-1.4-6.4-7.7-10.5-14-9.2zm88.2-139.7v-.2l-.2-.5c-2.8-5.9-9.9-8.5-15.7-5.8-2.9 1.3-5.1 3.7-6.2 6.6-1 2.8-1 5.8.1 8.5v.2l.2.5c5.3 11.8 8.1 23.6 8.4 36.2.2 6.5 5.6 11.5 12.1 11.5h.2c1.2-.1 2.9-.3 4.4-1l.4-.2.3-.3c3.8-2.1 6.3-6.3 6.3-10.8-.4-15.7-3.9-30.8-10.3-44.8zm-167 119.8c-9.6-8-17.4-17.7-23.2-28.9-2.9-5.8-10-8.1-16-5.1-5.8 2.9-8.1 10-5.1 16 7.2 14 16.9 26.2 29 36.3 2.6 2.1 5.8 3.1 9 2.7v.8l3.6-1.8c1.6-.8 3.1-1.9 4.1-3.2 4.1-5 3.5-12.5-1.5-16.7zM494 432.1c-5.8-3-12.9-.7-16 5.2-5.6 11.1-13.3 20.8-23 29-4.9 4.3-5.5 11.8-1.4 16.7 2.3 2.7 5.6 4.2 9 4.2s3.3-.3 4.9-1h.1c1-.5 1.8-1.1 2.5-1.7h.2c12-10.2 21.6-22.5 28.8-36.5 1.5-2.8 1.7-6 .7-9.1-1-3-3.1-5.4-5.9-6.9zM53.3 43.9c1.7 0 3.3-.4 4.9-1.1.6-.3 1.4-.7 2.2-1.4 9.9-7.5 21.4-13 33.4-16.1 3.1-.8 5.6-2.7 7.2-5.5 1.6-2.7 2-5.9 1.3-9-.8-3.1-2.7-5.6-5.5-7.2-2.7-1.6-5.9-2-9-1.3-15 3.9-29.5 10.9-41.8 20.2-5.3 4-6.3 11.3-2.3 16.6 2.3 3.1 5.9 4.8 9.5 4.8zm-36.6 80.3l.4-.2.2-.2c3.9-1.9 6.4-5.9 6.5-10.3.2-12.1 2.9-24.2 8.2-36.2 2.6-6-.2-13-6.1-15.7-6-2.6-13 .2-15.7 6.1C3.9 82 .4 97.3 0 113.1c-.1 3.2 1.1 6.3 3.3 8.6 2.2 2.3 5.2 3.5 8.3 3.5s3.4-.2 5.1-1.1zm123.2-99c12.2 3 23.5 8.4 33.5 16 2 1.5 4.5 2.3 7.1 2.3s2.8-.2 4.2-.7h2.3v-1.1c1.2-.8 2.2-1.7 3-2.8 1.9-2.6 2.7-5.7 2.3-8.8-.4-3.1-2.1-5.9-4.7-7.8-12.6-9.4-26.7-16.1-41.9-20-3.1-.8-6.2-.3-9 1.3-2.7 1.6-4.6 4.2-5.4 7.3-.8 3.1-.3 6.2 1.3 9 1.6 2.7 4.2 4.6 7.3 5.4zm84.2 42.7v-.2l-.2-.5c-2.8-5.9-9.9-8.5-15.7-5.8-2.9 1.3-5.1 3.7-6.2 6.6-1 2.8-1 5.8.1 8.5v.2l.2.5c5.3 11.8 8.1 23.6 8.4 36.2.2 6.5 5.6 11.5 12.1 11.5h.2c1.2-.1 2.9-.3 4.4-1l.4-.2.3-.3c3.8-2.1 6.3-6.3 6.3-10.8-.4-15.7-3.9-30.8-10.3-44.8zm-167 119.8c-9.6-8-17.4-17.7-23.2-28.9-2.9-5.8-10-8.1-16-5.1-5.8 2.9-8.1 10-5.1 16 7.2 14 16.9 26.2 29 36.3 2.6 2.1 5.8 3.1 9 2.7v.8l3.6-1.8c1.6-.8 3.1-1.9 4.1-3.2 4.1-5 3.5-12.5-1.5-16.7zm125.1-2c8.6 0 16.4 3.1 22.4 8.3 6.6-7.5 12.3-15.7 16.9-24.7 1.5-2.8 1.7-6 .7-9.1-1-3-3.1-5.4-5.9-6.9-5.8-3-12.9-.7-16 5.2-5.2 10.3-12.2 19.4-21 27.2h2.8z"/></svg>