<svg id="visual" viewBox="0 0 675 900" width="675" height="900" xmlns="http://www.w3.org/2000/svg" xmlns:xlink="http://www.w3.org/1999/xlink" version="1.1"><path d="M0 0L4.8 7.7C9.7 15.3 19.3 30.7 29.2 36.8C39 43 49 40 58.8 32.3C68.7 24.7 78.3 12.3 88 16.8C97.7 21.3 107.3 42.7 117.2 42.7C127 42.7 137 21.3 146.8 15.3C156.7 9.3 166.3 18.7 176 21.8C185.7 25 195.3 22 205.2 29.5C215 37 225 55 234.8 61C244.7 67 254.3 61 264 55C273.7 49 283.3 43 293.2 40C303 37 313 37 322.8 43C332.7 49 342.3 61 352.2 56.5C362 52 372 31 381.8 31C391.7 31 401.3 52 411 62.5C420.7 73 430.3 73 440.2 71.5C450 70 460 67 469.8 67C479.7 67 489.3 70 499 70C508.7 70 518.3 67 528.2 56.5C538 46 548 28 557.8 19C567.7 10 577.3 10 587 14.5C596.7 19 606.3 28 616.2 34C626 40 636 43 645.8 38.5C655.7 34 665.3 22 670.2 16L675 10L675 0L670.2 0C665.3 0 655.7 0 645.8 0C636 0 626 0 616.2 0C606.3 0 596.7 0 587 0C577.3 0 567.7 0 557.8 0C548 0 538 0 528.2 0C518.3 0 508.7 0 499 0C489.3 0 479.7 0 469.8 0C460 0 450 0 440.2 0C430.3 0 420.7 0 411 0C401.3 0 391.7 0 381.8 0C372 0 362 0 352.2 0C342.3 0 332.7 0 322.8 0C313 0 303 0 293.2 0C283.3 0 273.7 0 264 0C254.3 0 244.7 0 234.8 0C225 0 215 0 205.2 0C195.3 0 185.7 0 176 0C166.3 0 156.7 0 146.8 0C137 0 127 0 117.2 0C107.3 0 97.7 0 88 0C78.3 0 68.7 0 58.8 0C49 0 39 0 29.2 0C19.3 0 9.7 0 4.8 0L0 0Z" fill="#bbc7ab"></path><path d="M0 64L4.8 74.5C9.7 85 19.3 106 29.2 115C39 124 49 121 58.8 109C68.7 97 78.3 76 88 76C97.7 76 107.3 97 117.2 95.5C127 94 137 70 146.8 58C156.7 46 166.3 46 176 53.5C185.7 61 195.3 76 205.2 92.5C215 109 225 127 234.8 125.5C244.7 124 254.3 103 264 85C273.7 67 283.3 52 293.2 53.5C303 55 313 73 322.8 85C332.7 97 342.3 103 352.2 94C362 85 372 61 381.8 62.5C391.7 64 401.3 91 411 110.5C420.7 130 430.3 142 440.2 139C450 136 460 118 469.8 104.5C479.7 91 489.3 82 499 80.5C508.7 79 518.3 85 528.2 89.5C538 94 548 97 557.8 86.5C567.7 76 577.3 52 587 41.5C596.7 31 606.3 34 616.2 44.5C626 55 636 73 645.8 82C655.7 91 665.3 91 670.2 91L675 91L675 8L670.2 14C665.3 20 655.7 32 645.8 36.5C636 41 626 38 616.2 32C606.3 26 596.7 17 587 12.5C577.3 8 567.7 8 557.8 17C548 26 538 44 528.2 54.5C518.3 65 508.7 68 499 68C489.3 68 479.7 65 469.8 65C460 65 450 68 440.2 69.5C430.3 71 420.7 71 411 60.5C401.3 50 391.7 29 381.8 29C372 29 362 50 352.2 54.5C342.3 59 332.7 47 322.8 41C313 35 303 35 293.2 38C283.3 41 273.7 47 264 53C254.3 59 244.7 65 234.8 59C225 53 215 35 205.2 27.5C195.3 20 185.7 23 176 20.2C166.3 17.3 156.7 8.7 146.8 14.7C137 20.7 127 41.3 117.2 41.3C107.3 41.3 97.7 20.7 88 16.2C78.3 11.7 68.7 23.3 58.8 30.7C49 38 39 41 29.2 35.2C19.3 29.3 9.7 14.7 4.8 7.3L0 0Z" fill="#b5c3a5"></path><path d="M0 316L4.8 305.5C9.7 295 19.3 274 29.2 299.5C39 325 49 397 58.8 394C68.7 391 78.3 313 88 281.5C97.7 250 107.3 265 117.2 260.5C127 256 137 232 146.8 230.5C156.7 229 166.3 250 176 248.5C185.7 247 195.3 223 205.2 260.5C215 298 225 397 234.8 395.5C244.7 394 254.3 292 264 244C273.7 196 283.3 202 293.2 232C303 262 313 316 322.8 326.5C332.7 337 342.3 304 352.2 272.5C362 241 372 211 381.8 187C391.7 163 401.3 145 411 179.5C420.7 214 430.3 301 440.2 331C450 361 460 334 469.8 305.5C479.7 277 489.3 247 499 221.5C508.7 196 518.3 175 528.2 169C538 163 548 172 557.8 154C567.7 136 577.3 91 587 88C596.7 85 606.3 124 616.2 158.5C626 193 636 223 645.8 274C655.7 325 665.3 397 670.2 433L675 469L675 89L670.2 89C665.3 89 655.7 89 645.8 80C636 71 626 53 616.2 42.5C606.3 32 596.7 29 587 39.5C577.3 50 567.7 74 557.8 84.5C548 95 538 92 528.2 87.5C518.3 83 508.7 77 499 78.5C489.3 80 479.7 89 469.8 102.5C460 116 450 134 440.2 137C430.3 140 420.7 128 411 108.5C401.3 89 391.7 62 381.8 60.5C372 59 362 83 352.2 92C342.3 101 332.7 95 322.8 83C313 71 303 53 293.2 51.5C283.3 50 273.7 65 264 83C254.3 101 244.7 122 234.8 123.5C225 125 215 107 205.2 90.5C195.3 74 185.7 59 176 51.5C166.3 44 156.7 44 146.8 56C137 68 127 92 117.2 93.5C107.3 95 97.7 74 88 74C78.3 74 68.7 95 58.8 107C49 119 39 122 29.2 113C19.3 104 9.7 83 4.8 72.5L0 62Z" fill="#b0be9e"></path><path d="M0 316L4.8 320.5C9.7 325 19.3 334 29.2 380.5C39 427 49 511 58.8 494.5C68.7 478 78.3 361 88 328C97.7 295 107.3 346 117.2 343C127 340 137 283 146.8 269.5C156.7 256 166.3 286 176 284.5C185.7 283 195.3 250 205.2 283C215 316 225 415 234.8 419.5C244.7 424 254.3 334 264 292C273.7 250 283.3 256 293.2 287.5C303 319 313 376 322.8 385C332.7 394 342.3 355 352.2 314.5C362 274 372 232 381.8 202C391.7 172 401.3 154 411 188.5C420.7 223 430.3 310 440.2 353.5C450 397 460 397 469.8 373C479.7 349 489.3 301 499 269.5C508.7 238 518.3 223 528.2 215.5C538 208 548 208 557.8 193C567.7 178 577.3 148 587 157C596.7 166 606.3 214 616.2 251.5C626 289 636 316 645.8 368.5C655.7 421 665.3 499 670.2 538L675 577L675 467L670.2 431C665.3 395 655.7 323 645.8 272C636 221 626 191 616.2 156.5C606.3 122 596.7 83 587 86C577.3 89 567.7 134 557.8 152C548 170 538 161 528.2 167C518.3 173 508.7 194 499 219.5C489.3 245 479.7 275 469.8 303.5C460 332 450 359 440.2 329C430.3 299 420.7 212 411 177.5C401.3 143 391.7 161 381.8 185C372 209 362 239 352.2 270.5C342.3 302 332.7 335 322.8 324.5C313 314 303 260 293.2 230C283.3 200 273.7 194 264 242C254.3 290 244.7 392 234.8 393.5C225 395 215 296 205.2 258.5C195.3 221 185.7 245 176 246.5C166.3 248 156.7 227 146.8 228.5C137 230 127 254 117.2 258.5C107.3 263 97.7 248 88 279.5C78.3 311 68.7 389 58.8 392C49 395 39 323 29.2 297.5C19.3 272 9.7 293 4.8 303.5L0 314Z" fill="#aaba98"></path><path d="M0 406L4.8 433C9.7 460 19.3 514 29.2 553C39 592 49 616 58.8 577C68.7 538 78.3 436 88 427C97.7 418 107.3 502 117.2 508C127 514 137 442 146.8 433C156.7 424 166.3 478 176 497.5C185.7 517 195.3 502 205.2 514C215 526 225 565 234.8 574C244.7 583 254.3 562 264 547C273.7 532 283.3 523 293.2 514C303 505 313 496 322.8 509.5C332.7 523 342.3 559 352.2 562C362 565 372 535 381.8 524.5C391.7 514 401.3 523 411 527.5C420.7 532 430.3 532 440.2 535C450 538 460 544 469.8 518.5C479.7 493 489.3 436 499 422.5C508.7 409 518.3 439 528.2 442C538 445 548 421 557.8 404.5C567.7 388 577.3 379 587 419.5C596.7 460 606.3 550 616.2 554.5C626 559 636 478 645.8 478C655.7 478 665.3 559 670.2 599.5L675 640L675 575L670.2 536C665.3 497 655.7 419 645.8 366.5C636 314 626 287 616.2 249.5C606.3 212 596.7 164 587 155C577.3 146 567.7 176 557.8 191C548 206 538 206 528.2 213.5C518.3 221 508.7 236 499 267.5C489.3 299 479.7 347 469.8 371C460 395 450 395 440.2 351.5C430.3 308 420.7 221 411 186.5C401.3 152 391.7 170 381.8 200C372 230 362 272 352.2 312.5C342.3 353 332.7 392 322.8 383C313 374 303 317 293.2 285.5C283.3 254 273.7 248 264 290C254.3 332 244.7 422 234.8 417.5C225 413 215 314 205.2 281C195.3 248 185.7 281 176 282.5C166.3 284 156.7 254 146.8 267.5C137 281 127 338 117.2 341C107.3 344 97.7 293 88 326C78.3 359 68.7 476 58.8 492.5C49 509 39 425 29.2 378.5C19.3 332 9.7 323 4.8 318.5L0 314Z" fill="#a4b591"></path><path d="M0 406L4.8 440.5C9.7 475 19.3 544 29.2 586C39 628 49 643 58.8 617.5C68.7 592 78.3 526 88 523C97.7 520 107.3 580 117.2 575.5C127 571 137 502 146.8 487C156.7 472 166.3 511 176 524.5C185.7 538 195.3 526 205.2 544C215 562 225 610 234.8 626.5C244.7 643 254.3 628 264 617.5C273.7 607 283.3 601 293.2 592C303 583 313 571 322.8 587.5C332.7 604 342.3 649 352.2 658C362 667 372 640 381.8 613C391.7 586 401.3 559 411 554.5C420.7 550 430.3 568 440.2 571C450 574 460 562 469.8 538C479.7 514 489.3 478 499 473.5C508.7 469 518.3 496 528.2 500.5C538 505 548 487 557.8 475C567.7 463 577.3 457 587 508C596.7 559 606.3 667 616.2 670C626 673 636 571 645.8 554.5C655.7 538 665.3 607 670.2 641.5L675 676L675 638L670.2 597.5C665.3 557 655.7 476 645.8 476C636 476 626 557 616.2 552.5C606.3 548 596.7 458 587 417.5C577.3 377 567.7 386 557.8 402.5C548 419 538 443 528.2 440C518.3 437 508.7 407 499 420.5C489.3 434 479.7 491 469.8 516.5C460 542 450 536 440.2 533C430.3 530 420.7 530 411 525.5C401.3 521 391.7 512 381.8 522.5C372 533 362 563 352.2 560C342.3 557 332.7 521 322.8 507.5C313 494 303 503 293.2 512C283.3 521 273.7 530 264 545C254.3 560 244.7 581 234.8 572C225 563 215 524 205.2 512C195.3 500 185.7 515 176 495.5C166.3 476 156.7 422 146.8 431C137 440 127 512 117.2 506C107.3 500 97.7 416 88 425C78.3 434 68.7 536 58.8 575C49 614 39 590 29.2 551C19.3 512 9.7 458 4.8 431L0 404Z" fill="#9fb18b"></path><path d="M0 478L4.8 503.5C9.7 529 19.3 580 29.2 617.5C39 655 49 679 58.8 667C68.7 655 78.3 607 88 608.5C97.7 610 107.3 661 117.2 656.5C127 652 137 592 146.8 574C156.7 556 166.3 580 176 583C185.7 586 195.3 568 205.2 580C215 592 225 634 234.8 656.5C244.7 679 254.3 682 264 670C273.7 658 283.3 631 293.2 617.5C303 604 313 604 322.8 625C332.7 646 342.3 688 352.2 691C362 694 372 658 381.8 632.5C391.7 607 401.3 592 411 593.5C420.7 595 430.3 613 440.2 619C450 625 460 619 469.8 593.5C479.7 568 489.3 523 499 523C508.7 523 518.3 568 528.2 575.5C538 583 548 553 557.8 535C567.7 517 577.3 511 587 566.5C596.7 622 606.3 739 616.2 743.5C626 748 636 640 645.8 611.5C655.7 583 665.3 634 670.2 659.5L675 685L675 674L670.2 639.5C665.3 605 655.7 536 645.8 552.5C636 569 626 671 616.2 668C606.3 665 596.7 557 587 506C577.3 455 567.7 461 557.8 473C548 485 538 503 528.2 498.5C518.3 494 508.7 467 499 471.5C489.3 476 479.7 512 469.8 536C460 560 450 572 440.2 569C430.3 566 420.7 548 411 552.5C401.3 557 391.7 584 381.8 611C372 638 362 665 352.2 656C342.3 647 332.7 602 322.8 585.5C313 569 303 581 293.2 590C283.3 599 273.7 605 264 615.5C254.3 626 244.7 641 234.8 624.5C225 608 215 560 205.2 542C195.3 524 185.7 536 176 522.5C166.3 509 156.7 470 146.8 485C137 500 127 569 117.2 573.5C107.3 578 97.7 518 88 521C78.3 524 68.7 590 58.8 615.5C49 641 39 626 29.2 584C19.3 542 9.7 473 4.8 438.5L0 404Z" fill="#98ab84"></path><path d="M0 496L4.8 518.5C9.7 541 19.3 586 29.2 634C39 682 49 733 58.8 728.5C68.7 724 78.3 664 88 662.5C97.7 661 107.3 718 117.2 716.5C127 715 137 655 146.8 626.5C156.7 598 166.3 601 176 596.5C185.7 592 195.3 580 205.2 599.5C215 619 225 670 234.8 697C244.7 724 254.3 727 264 718C273.7 709 283.3 688 293.2 677.5C303 667 313 667 322.8 682C332.7 697 342.3 727 352.2 727C362 727 372 697 381.8 673C391.7 649 401.3 631 411 628C420.7 625 430.3 637 440.2 641.5C450 646 460 643 469.8 620.5C479.7 598 489.3 556 499 562C508.7 568 518.3 622 528.2 635.5C538 649 548 622 557.8 598C567.7 574 577.3 553 587 598C596.7 643 606.3 754 616.2 754C626 754 636 643 645.8 625C655.7 607 665.3 682 670.2 719.5L675 757L675 683L670.2 657.5C665.3 632 655.7 581 645.8 609.5C636 638 626 746 616.2 741.5C606.3 737 596.7 620 587 564.5C577.3 509 567.7 515 557.8 533C548 551 538 581 528.2 573.5C518.3 566 508.7 521 499 521C489.3 521 479.7 566 469.8 591.5C460 617 450 623 440.2 617C430.3 611 420.7 593 411 591.5C401.3 590 391.7 605 381.8 630.5C372 656 362 692 352.2 689C342.3 686 332.7 644 322.8 623C313 602 303 602 293.2 615.5C283.3 629 273.7 656 264 668C254.3 680 244.7 677 234.8 654.5C225 632 215 590 205.2 578C195.3 566 185.7 584 176 581C166.3 578 156.7 554 146.8 572C137 590 127 650 117.2 654.5C107.3 659 97.7 608 88 606.5C78.3 605 68.7 653 58.8 665C49 677 39 653 29.2 615.5C19.3 578 9.7 527 4.8 501.5L0 476Z" fill="#90a27d"></path><path d="M0 532L4.8 551.5C9.7 571 19.3 610 29.2 652C39 694 49 739 58.8 731.5C68.7 724 78.3 664 88 671.5C97.7 679 107.3 754 117.2 758.5C127 763 137 697 146.8 664C156.7 631 166.3 631 176 622C185.7 613 195.3 595 205.2 616C215 637 225 697 234.8 734.5C244.7 772 254.3 787 264 773.5C273.7 760 283.3 718 293.2 701.5C303 685 313 694 322.8 719.5C332.7 745 342.3 787 352.2 791.5C362 796 372 763 381.8 739C391.7 715 401.3 700 411 695.5C420.7 691 430.3 697 440.2 701.5C450 706 460 709 469.8 685C479.7 661 489.3 610 499 613C508.7 616 518.3 673 528.2 683.5C538 694 548 658 557.8 629.5C567.7 601 577.3 580 587 623.5C596.7 667 606.3 775 616.2 781C626 787 636 691 645.8 676C655.7 661 665.3 727 670.2 760L675 793L675 755L670.2 717.5C665.3 680 655.7 605 645.8 623C636 641 626 752 616.2 752C606.3 752 596.7 641 587 596C577.3 551 567.7 572 557.8 596C548 620 538 647 528.2 633.5C518.3 620 508.7 566 499 560C489.3 554 479.7 596 469.8 618.5C460 641 450 644 440.2 639.5C430.3 635 420.7 623 411 626C401.3 629 391.7 647 381.8 671C372 695 362 725 352.2 725C342.3 725 332.7 695 322.8 680C313 665 303 665 293.2 675.5C283.3 686 273.7 707 264 716C254.3 725 244.7 722 234.8 695C225 668 215 617 205.2 597.5C195.3 578 185.7 590 176 594.5C166.3 599 156.7 596 146.8 624.5C137 653 127 713 117.2 714.5C107.3 716 97.7 659 88 660.5C78.3 662 68.7 722 58.8 726.5C49 731 39 680 29.2 632C19.3 584 9.7 539 4.8 516.5L0 494Z" fill="#899a76"></path><path d="M0 793L4.8 785.5C9.7 778 19.3 763 29.2 767.5C39 772 49 796 58.8 803.5C68.7 811 78.3 802 88 812.5C97.7 823 107.3 853 117.2 856C127 859 137 835 146.8 826C156.7 817 166.3 823 176 805C185.7 787 195.3 745 205.2 734.5C215 724 225 745 234.8 772C244.7 799 254.3 832 264 842.5C273.7 853 283.3 841 293.2 820C303 799 313 769 322.8 775C332.7 781 342.3 823 352.2 826C362 829 372 793 381.8 784C391.7 775 401.3 793 411 793C420.7 793 430.3 775 440.2 764.5C450 754 460 751 469.8 739C479.7 727 489.3 706 499 718C508.7 730 518.3 775 528.2 785.5C538 796 548 772 557.8 755.5C567.7 739 577.3 730 587 754C596.7 778 606.3 835 616.2 842.5C626 850 636 808 645.8 796C655.7 784 665.3 802 670.2 811L675 820L675 791L670.2 758C665.3 725 655.7 659 645.8 674C636 689 626 785 616.2 779C606.3 773 596.7 665 587 621.5C577.3 578 567.7 599 557.8 627.5C548 656 538 692 528.2 681.5C518.3 671 508.7 614 499 611C489.3 608 479.7 659 469.8 683C460 707 450 704 440.2 699.5C430.3 695 420.7 689 411 693.5C401.3 698 391.7 713 381.8 737C372 761 362 794 352.2 789.5C342.3 785 332.7 743 322.8 717.5C313 692 303 683 293.2 699.5C283.3 716 273.7 758 264 771.5C254.3 785 244.7 770 234.8 732.5C225 695 215 635 205.2 614C195.3 593 185.7 611 176 620C166.3 629 156.7 629 146.8 662C137 695 127 761 117.2 756.5C107.3 752 97.7 677 88 669.5C78.3 662 68.7 722 58.8 729.5C49 737 39 692 29.2 650C19.3 608 9.7 569 4.8 549.5L0 530Z" fill="#819170"></path><path d="M0 892L4.8 886C9.7 880 19.3 868 29.2 857.5C39 847 49 838 58.8 830.5C68.7 823 78.3 817 88 826C97.7 835 107.3 859 117.2 866.5C127 874 137 865 146.8 865C156.7 865 166.3 874 176 851.5C185.7 829 195.3 775 205.2 757C215 739 225 757 234.8 785.5C244.7 814 254.3 853 264 872.5C273.7 892 283.3 892 293.2 866.5C303 841 313 790 322.8 787C332.7 784 342.3 829 352.2 844C362 859 372 844 381.8 839.5C391.7 835 401.3 841 411 842.5C420.7 844 430.3 841 440.2 830.5C450 820 460 802 469.8 791.5C479.7 781 489.3 778 499 790C508.7 802 518.3 829 528.2 826C538 823 548 790 557.8 787C567.7 784 577.3 811 587 835C596.7 859 606.3 880 616.2 877C626 874 636 847 645.8 838C655.7 829 665.3 838 670.2 842.5L675 847L675 818L670.2 809C665.3 800 655.7 782 645.8 794C636 806 626 848 616.2 840.5C606.3 833 596.7 776 587 752C577.3 728 567.7 737 557.8 753.5C548 770 538 794 528.2 783.5C518.3 773 508.7 728 499 716C489.3 704 479.7 725 469.8 737C460 749 450 752 440.2 762.5C430.3 773 420.7 791 411 791C401.3 791 391.7 773 381.8 782C372 791 362 827 352.2 824C342.3 821 332.7 779 322.8 773C313 767 303 797 293.2 818C283.3 839 273.7 851 264 840.5C254.3 830 244.7 797 234.8 770C225 743 215 722 205.2 732.5C195.3 743 185.7 785 176 803C166.3 821 156.7 815 146.8 824C137 833 127 857 117.2 854C107.3 851 97.7 821 88 810.5C78.3 800 68.7 809 58.8 801.5C49 794 39 770 29.2 765.5C19.3 761 9.7 776 4.8 783.5L0 791Z" fill="#798969"></path><path d="M0 901L4.8 901C9.7 901 19.3 901 29.2 901C39 901 49 901 58.8 901C68.7 901 78.3 901 88 901C97.7 901 107.3 901 117.2 901C127 901 137 901 146.8 901C156.7 901 166.3 901 176 901C185.7 901 195.3 901 205.2 901C215 901 225 901 234.8 901C244.7 901 254.3 901 264 901C273.7 901 283.3 901 293.2 901C303 901 313 901 322.8 901C332.7 901 342.3 901 352.2 901C362 901 372 901 381.8 901C391.7 901 401.3 901 411 901C420.7 901 430.3 901 440.2 901C450 901 460 901 469.8 901C479.7 901 489.3 901 499 901C508.7 901 518.3 901 528.2 901C538 901 548 901 557.8 901C567.7 901 577.3 901 587 901C596.7 901 606.3 901 616.2 901C626 901 636 901 645.8 901C655.7 901 665.3 901 670.2 901L675 901L675 845L670.2 840.5C665.3 836 655.7 827 645.8 836C636 845 626 872 616.2 875C606.3 878 596.7 857 587 833C577.3 809 567.7 782 557.8 785C548 788 538 821 528.2 824C518.3 827 508.7 800 499 788C489.3 776 479.7 779 469.8 789.5C460 800 450 818 440.2 828.5C430.3 839 420.7 842 411 840.5C401.3 839 391.7 833 381.8 837.5C372 842 362 857 352.2 842C342.3 827 332.7 782 322.8 785C313 788 303 839 293.2 864.5C283.3 890 273.7 890 264 870.5C254.3 851 244.7 812 234.8 783.5C225 755 215 737 205.2 755C195.3 773 185.7 827 176 849.5C166.3 872 156.7 863 146.8 863C137 863 127 872 117.2 864.5C107.3 857 97.7 833 88 824C78.3 815 68.7 821 58.8 828.5C49 836 39 845 29.2 855.5C19.3 866 9.7 878 4.8 884L0 890Z" fill="#728162"></path></svg>