<svg id="visual" viewBox="0 0 900 600" width="900" height="600" xmlns="http://www.w3.org/2000/svg" xmlns:xlink="http://www.w3.org/1999/xlink" version="1.1"><path d="M0 13L13.7 14C27.3 15 54.7 17 82 22C109.3 27 136.7 35 163.8 37C191 39 218 35 245.2 31C272.3 27 299.7 23 327 22C354.3 21 381.7 23 409 28C436.3 33 463.7 41 491 43C518.3 45 545.7 41 573 36C600.3 31 627.7 25 654.8 23C682 21 709 23 736.2 24C763.3 25 790.7 25 818 27C845.3 29 872.7 33 886.3 35L900 37L900 0L886.3 0C872.7 0 845.3 0 818 0C790.7 0 763.3 0 736.2 0C709 0 682 0 654.8 0C627.7 0 600.3 0 573 0C545.7 0 518.3 0 491 0C463.7 0 436.3 0 409 0C381.7 0 354.3 0 327 0C299.7 0 272.3 0 245.2 0C218 0 191 0 163.8 0C136.7 0 109.3 0 82 0C54.7 0 27.3 0 13.7 0L0 0Z" fill="#bbc7ab"></path><path d="M0 31L13.7 30C27.3 29 54.7 27 82 35C109.3 43 136.7 61 163.8 65C191 69 218 59 245.2 55C272.3 51 299.7 53 327 53C354.3 53 381.7 51 409 55C436.3 59 463.7 69 491 70C518.3 71 545.7 63 573 56C600.3 49 627.7 43 654.8 42C682 41 709 45 736.2 47C763.3 49 790.7 49 818 53C845.3 57 872.7 65 886.3 69L900 73L900 35L886.3 33C872.7 31 845.3 27 818 25C790.7 23 763.3 23 736.2 22C709 21 682 19 654.8 21C627.7 23 600.3 29 573 34C545.7 39 518.3 43 491 41C463.7 39 436.3 31 409 26C381.7 21 354.3 19 327 20C299.7 21 272.3 25 245.2 29C218 33 191 37 163.8 35C136.7 33 109.3 25 82 20C54.7 15 27.3 13 13.7 12L0 11Z" fill="#b5c3a5"></path><path d="M0 49L13.7 49C27.3 49 54.7 49 82 56C109.3 63 136.7 77 163.8 83C191 89 218 87 245.2 84C272.3 81 299.7 77 327 72C354.3 67 381.7 61 409 64C436.3 67 463.7 79 491 83C518.3 87 545.7 83 573 75C600.3 67 627.7 55 654.8 55C682 55 709 67 736.2 71C763.3 75 790.7 71 818 75C845.3 79 872.7 91 886.3 97L900 103L900 71L886.3 67C872.7 63 845.3 55 818 51C790.7 47 763.3 47 736.2 45C709 43 682 39 654.8 40C627.7 41 600.3 47 573 54C545.7 61 518.3 69 491 68C463.7 67 436.3 57 409 53C381.7 49 354.3 51 327 51C299.7 51 272.3 49 245.2 53C218 57 191 67 163.8 63C136.7 59 109.3 41 82 33C54.7 25 27.3 27 13.7 28L0 29Z" fill="#b0be9e"></path><path d="M0 235L13.7 233C27.3 231 54.7 227 82 226C109.3 225 136.7 227 163.8 228C191 229 218 229 245.2 227C272.3 225 299.7 221 327 206C354.3 191 381.7 165 409 157C436.3 149 463.7 159 491 164C518.3 169 545.7 169 573 167C600.3 165 627.7 161 654.8 169C682 177 709 197 736.2 209C763.3 221 790.7 225 818 218C845.3 211 872.7 193 886.3 184L900 175L900 101L886.3 95C872.7 89 845.3 77 818 73C790.7 69 763.3 73 736.2 69C709 65 682 53 654.8 53C627.7 53 600.3 65 573 73C545.7 81 518.3 85 491 81C463.7 77 436.3 65 409 62C381.7 59 354.3 65 327 70C299.7 75 272.3 79 245.2 82C218 85 191 87 163.8 81C136.7 75 109.3 61 82 54C54.7 47 27.3 47 13.7 47L0 47Z" fill="#aaba98"></path><path d="M0 283L13.7 278C27.3 273 54.7 263 82 265C109.3 267 136.7 281 163.8 287C191 293 218 291 245.2 286C272.3 281 299.7 273 327 252C354.3 231 381.7 197 409 185C436.3 173 463.7 183 491 195C518.3 207 545.7 221 573 226C600.3 231 627.7 227 654.8 231C682 235 709 247 736.2 252C763.3 257 790.7 255 818 245C845.3 235 872.7 217 886.3 208L900 199L900 173L886.3 182C872.7 191 845.3 209 818 216C790.7 223 763.3 219 736.2 207C709 195 682 175 654.8 167C627.7 159 600.3 163 573 165C545.7 167 518.3 167 491 162C463.7 157 436.3 147 409 155C381.7 163 354.3 189 327 204C299.7 219 272.3 223 245.2 225C218 227 191 227 163.8 226C136.7 225 109.3 223 82 224C54.7 225 27.3 229 13.7 231L0 233Z" fill="#a4b591"></path><path d="M0 295L13.7 291C27.3 287 54.7 279 82 285C109.3 291 136.7 311 163.8 320C191 329 218 327 245.2 324C272.3 321 299.7 317 327 296C354.3 275 381.7 237 409 224C436.3 211 463.7 223 491 233C518.3 243 545.7 251 573 257C600.3 263 627.7 267 654.8 269C682 271 709 271 736.2 271C763.3 271 790.7 271 818 261C845.3 251 872.7 231 886.3 221L900 211L900 197L886.3 206C872.7 215 845.3 233 818 243C790.7 253 763.3 255 736.2 250C709 245 682 233 654.8 229C627.7 225 600.3 229 573 224C545.7 219 518.3 205 491 193C463.7 181 436.3 171 409 183C381.7 195 354.3 229 327 250C299.7 271 272.3 279 245.2 284C218 289 191 291 163.8 285C136.7 279 109.3 265 82 263C54.7 261 27.3 271 13.7 276L0 281Z" fill="#9fb18b"></path><path d="M0 337L13.7 351C27.3 365 54.7 393 82 401C109.3 409 136.7 397 163.8 395C191 393 218 401 245.2 398C272.3 395 299.7 381 327 372C354.3 363 381.7 359 409 357C436.3 355 463.7 355 491 359C518.3 363 545.7 371 573 373C600.3 375 627.7 371 654.8 371C682 371 709 375 736.2 368C763.3 361 790.7 343 818 345C845.3 347 872.7 369 886.3 380L900 391L900 209L886.3 219C872.7 229 845.3 249 818 259C790.7 269 763.3 269 736.2 269C709 269 682 269 654.8 267C627.7 265 600.3 261 573 255C545.7 249 518.3 241 491 231C463.7 221 436.3 209 409 222C381.7 235 354.3 273 327 294C299.7 315 272.3 319 245.2 322C218 325 191 327 163.8 318C136.7 309 109.3 289 82 283C54.7 277 27.3 285 13.7 289L0 293Z" fill="#98ab84"></path><path d="M0 367L13.7 381C27.3 395 54.7 423 82 431C109.3 439 136.7 427 163.8 423C191 419 218 423 245.2 421C272.3 419 299.7 411 327 405C354.3 399 381.7 395 409 392C436.3 389 463.7 387 491 392C518.3 397 545.7 409 573 415C600.3 421 627.7 421 654.8 422C682 423 709 425 736.2 412C763.3 399 790.7 371 818 372C845.3 373 872.7 403 886.3 418L900 433L900 389L886.3 378C872.7 367 845.3 345 818 343C790.7 341 763.3 359 736.2 366C709 373 682 369 654.8 369C627.7 369 600.3 373 573 371C545.7 369 518.3 361 491 357C463.7 353 436.3 353 409 355C381.7 357 354.3 361 327 370C299.7 379 272.3 393 245.2 396C218 399 191 391 163.8 393C136.7 395 109.3 407 82 399C54.7 391 27.3 363 13.7 349L0 335Z" fill="#90a27d"></path><path d="M0 457L13.7 466C27.3 475 54.7 493 82 491C109.3 489 136.7 467 163.8 465C191 463 218 481 245.2 480C272.3 479 299.7 459 327 449C354.3 439 381.7 439 409 437C436.3 435 463.7 431 491 432C518.3 433 545.7 439 573 442C600.3 445 627.7 445 654.8 457C682 469 709 493 736.2 482C763.3 471 790.7 425 818 421C845.3 417 872.7 455 886.3 474L900 493L900 431L886.3 416C872.7 401 845.3 371 818 370C790.7 369 763.3 397 736.2 410C709 423 682 421 654.8 420C627.7 419 600.3 419 573 413C545.7 407 518.3 395 491 390C463.7 385 436.3 387 409 390C381.7 393 354.3 397 327 403C299.7 409 272.3 417 245.2 419C218 421 191 417 163.8 421C136.7 425 109.3 437 82 429C54.7 421 27.3 393 13.7 379L0 365Z" fill="#899a76"></path><path d="M0 505L13.7 511C27.3 517 54.7 529 82 536C109.3 543 136.7 545 163.8 546C191 547 218 547 245.2 542C272.3 537 299.7 527 327 521C354.3 515 381.7 513 409 517C436.3 521 463.7 531 491 537C518.3 543 545.7 545 573 544C600.3 543 627.7 539 654.8 541C682 543 709 551 736.2 546C763.3 541 790.7 523 818 520C845.3 517 872.7 529 886.3 535L900 541L900 491L886.3 472C872.7 453 845.3 415 818 419C790.7 423 763.3 469 736.2 480C709 491 682 467 654.8 455C627.7 443 600.3 443 573 440C545.7 437 518.3 431 491 430C463.7 429 436.3 433 409 435C381.7 437 354.3 437 327 447C299.7 457 272.3 477 245.2 478C218 479 191 461 163.8 463C136.7 465 109.3 487 82 489C54.7 491 27.3 473 13.7 464L0 455Z" fill="#819170"></path><path d="M0 559L13.7 562C27.3 565 54.7 571 82 574C109.3 577 136.7 577 163.8 576C191 575 218 573 245.2 573C272.3 573 299.7 575 327 575C354.3 575 381.7 573 409 575C436.3 577 463.7 583 491 581C518.3 579 545.7 569 573 568C600.3 567 627.7 575 654.8 579C682 583 709 583 736.2 579C763.3 575 790.7 567 818 567C845.3 567 872.7 575 886.3 579L900 583L900 539L886.3 533C872.7 527 845.3 515 818 518C790.7 521 763.3 539 736.2 544C709 549 682 541 654.8 539C627.7 537 600.3 541 573 542C545.7 543 518.3 541 491 535C463.7 529 436.3 519 409 515C381.7 511 354.3 513 327 519C299.7 525 272.3 535 245.2 540C218 545 191 545 163.8 544C136.7 543 109.3 541 82 534C54.7 527 27.3 515 13.7 509L0 503Z" fill="#798969"></path><path d="M0 601L13.7 601C27.3 601 54.7 601 82 601C109.3 601 136.7 601 163.8 601C191 601 218 601 245.2 601C272.3 601 299.7 601 327 601C354.3 601 381.7 601 409 601C436.3 601 463.7 601 491 601C518.3 601 545.7 601 573 601C600.3 601 627.7 601 654.8 601C682 601 709 601 736.2 601C763.3 601 790.7 601 818 601C845.3 601 872.7 601 886.3 601L900 601L900 581L886.3 577C872.7 573 845.3 565 818 565C790.7 565 763.3 573 736.2 577C709 581 682 581 654.8 577C627.7 573 600.3 565 573 566C545.7 567 518.3 577 491 579C463.7 581 436.3 575 409 573C381.7 571 354.3 573 327 573C299.7 573 272.3 571 245.2 571C218 571 191 573 163.8 574C136.7 575 109.3 575 82 572C54.7 569 27.3 563 13.7 560L0 557Z" fill="#728162"></path></svg>